<?xml version="1.0" standalone="no"?>
<!DOCTYPE svg PUBLIC "-//W3C//DTD SVG 1.1//EN" "http://www.w3.org/Graphics/SVG/1.1/DTD/svg11.dtd">
<svg xmlns="http://www.w3.org/2000/svg">
<metadata>Copyright (C) 2025 by original authors @ fontello.com</metadata>
<defs>
<font id="fontello" horiz-adv-x="1000" >
<font-face font-family="fontello" font-weight="400" font-stretch="normal" units-per-em="1000" ascent="850" descent="-150" />
<missing-glyph horiz-adv-x="1000" />
<glyph glyph-name="angle-left" unicode="&#xe800;" d="M253-142c-6 0-12 4-17 13l-202 370c-33 60-33 158 0 219l202 369c9 17 24 17 33 0 9-16 9-43 0-60l-202-370c-15-27-15-71 0-98l202-370c9-17 9-44 0-60-5-8-10-13-16-13z" horiz-adv-x="277" />

<glyph glyph-name="facebook" unicode="&#xe801;" d="M920 844h-866c-15 0-28-5-38-16-10-10-16-23-16-37v-865c0-7 1-13 4-20 3-6 7-12 12-17 5-5 11-9 17-12 7-3 14-4 21-4h466v376h-127v146h127v109c-3 26 0 52 9 76 8 25 22 47 40 65 18 19 39 33 64 42 24 10 50 13 75 11 38 1 76-1 114-5v-131h-78c-61 0-73-30-73-72v-93h146l-19-146h-127v-378h249c7 0 13 1 20 4 6 3 12 7 17 12 5 5 9 11 12 17 3 7 4 13 4 20v865c0 7-1 14-4 20-3 7-7 13-12 17-5 5-11 9-17 12-7 3-13 4-20 4z" horiz-adv-x="973" />

<glyph glyph-name="linkedin" unicode="&#xe802;" d="M901 844h-829c-9 0-19-1-27-5-9-3-17-8-23-15-7-6-12-14-16-22-4-9-6-18-6-27v-832c0-10 2-19 6-27 4-9 9-17 16-23 6-6 14-12 23-15 8-3 18-5 27-5h829c9 0 19 2 27 5 9 3 17 9 24 15 6 6 12 14 15 23 4 8 6 17 6 27v832c0 9-2 18-6 27-3 8-9 16-15 22-7 7-15 12-24 15-8 4-18 5-27 5z m-606-813h-147v437h147v-437z m-73 499c-20 0-40 8-54 22-15 14-23 33-23 53 0 20 8 40 23 54 14 14 34 22 54 22 11 1 21 0 32-3 10-3 20-9 28-16 8-7 14-16 19-26 4-9 6-20 6-31 0-10-2-21-6-31-5-10-11-18-19-26-8-7-18-12-28-15-11-4-21-5-32-3z m603-499h-147v235c0 59-21 97-74 97-17 0-33-5-47-15-13-9-23-22-29-38-4-11-5-23-5-35v-243h-147c0 0 0 397 0 437h147v-62c14 23 33 42 56 55 24 13 50 19 77 18 98 0 169-63 169-197v-252z" horiz-adv-x="973" />

<glyph glyph-name="telegram" unicode="&#xe803;" d="M487 844c-97 0-191-28-271-82-80-53-142-129-179-218-37-88-46-186-28-280 19-94 66-181 134-249 68-68 154-114 249-133 94-18 192-9 281 28 89 37 165 99 218 179 53 80 82 174 82 270 0 63-13 127-37 185-24 59-60 113-105 158-46 45-99 81-158 105-59 25-123 37-186 37z m154-735c-2-5-4-9-8-12-3-4-8-6-12-8-5-2-10-2-15-2-5 1-9 2-14 4l-132 103-84-78c-2-2-5-3-7-3-2 0-5 0-7 1l16 145 1 0 0 2c0 0 238 216 247 226 10 9 7 11 7 11 0 11-18 0-18 0l-315-202-131 44c0 0-20 7-22 23-2 16 23 24 23 24l521 207c0 0 43 19 43-12l-93-473z" horiz-adv-x="973" />

<glyph glyph-name="instagram" unicode="&#xe804;" d="M487 479c-24 0-48-7-67-20-20-13-36-32-45-54-9-22-11-46-7-70 5-23 16-45 33-61 17-17 39-29 62-33 23-5 48-3 70 6 22 10 41 25 54 45 13 20 20 43 20 67 0 15-3 31-9 46-6 14-15 28-26 39-11 11-25 20-39 26-15 6-31 9-46 9z m483 119c-1 37-8 75-21 110-10 25-25 49-44 68-20 20-43 35-69 44-35 14-72 20-110 21-62 3-81 3-239 3-159 0-178 0-240-3-38-1-75-7-110-21-26-9-49-24-69-44-19-19-34-43-44-68-13-35-20-73-21-110-3-63-3-81-3-239 0-159 0-177 3-240 1-37 8-75 21-110 10-26 25-49 44-68 20-19 43-35 69-44 35-13 72-20 110-21 62-3 81-3 240-3 158 0 177 0 239 3 38 1 75 8 110 21 26 9 50 25 69 44 19 19 34 42 44 68 13 35 20 73 21 110 3 63 3 81 3 240 0 158 0 176-3 239z m-124-388c-2-30-8-60-19-88-9-23-23-44-41-62-18-18-39-32-63-41-28-11-58-16-88-17-38 0-48 0-148 0-101 0-111 0-149 0-30 1-60 6-88 17-25 9-46 23-64 42-18 17-31 38-40 61-10 28-16 58-17 88 0 38 0 49 0 149 0 100 0 110 0 148 1 30 7 60 17 88 9 24 23 46 42 64 17 17 38 31 62 39 28 11 58 17 88 17 38 0 48 0 149 0 100 0 110 0 148 0 30 0 60-6 88-17 25-8 46-23 64-41 18-18 31-39 40-62 10-28 16-58 17-88 0-38 0-48 0-148 0-100 4-111 2-149v0z m-78 361c-6 15-15 30-27 42-11 11-26 20-41 26-22 8-45 11-68 11-37 0-48 0-145 0-98 0-108 0-146 0-23 0-46-5-68-13-15-5-29-14-41-25-12-12-21-25-27-41-7-21-11-44-10-67 0-38 0-48 0-145 0-97 0-108 0-146 0-23 4-46 12-67 6-16 15-30 27-42 12-12 26-21 42-26 21-8 42-12 65-13 38 0 48 0 146 0 97 0 108 0 145 0 23 0 46 4 68 13 15 5 30 14 41 26 12 12 21 26 27 42 8 21 13 44 13 67 0 38 0 49 0 146 0 97 0 107 0 145 0 23-4 46-13 67v0z m-281-398c-25 0-49 5-72 14-22 10-42 23-60 41-17 17-31 37-40 60-9 22-14 46-14 71 0 36 11 72 32 103 20 30 49 54 83 68 34 14 71 18 107 11 37-8 70-25 96-51 26-26 43-59 50-95 7-36 4-74-10-108-15-34-38-62-69-83-31-20-67-31-103-31z m194 335c-11 1-21 6-28 14-7 8-11 18-11 29 0 11 4 21 11 29 7 8 17 13 28 15 11-2 21-7 28-15 7-8 11-18 11-29 0-11-4-21-11-29-7-8-17-13-28-14z" horiz-adv-x="973" />

<glyph glyph-name="phone" unicode="&#xe805;" d="M748-139c-52 0-106 13-162 36-54 23-109 55-163 94-53 39-104 83-153 130-48 49-92 100-130 153-39 55-71 109-93 162-24 56-36 111-36 162 0 36 7 69 19 101 13 32 33 62 61 88 35 34 75 52 118 52 17 0 36-4 51-12 18-8 33-20 44-36l105-149c10-13 17-26 22-39 6-13 9-27 9-40 0-17-5-34-14-50-7-12-18-26-31-39l-31-32c1-1 1-2 2-3 5-10 16-26 37-51 22-25 43-48 64-70 27-26 49-47 70-64 26-22 43-33 53-38l-1-2 33 32c14 15 28 25 41 32 25 15 57 18 88 5 12-5 25-12 39-22l151-107c16-11 29-26 36-43 7-17 10-33 10-49 0-22-5-44-15-64-9-21-21-39-36-55-26-29-54-49-87-62-31-13-65-20-101-20z m-539 910c-25 0-48-11-71-33-21-20-35-41-44-64-10-24-14-49-14-76 0-42 10-88 30-135 20-48 49-98 85-148 36-50 78-99 123-145 46-45 95-87 145-124 49-35 100-65 150-86 78-33 150-41 210-16 23 10 44 25 63 45 10 12 18 24 25 39 5 11 8 23 8 35 0 7-1 14-5 23-1 2-4 7-13 13l-150 107c-10 7-18 11-25 15-10 4-15 8-30-2-9-4-17-11-26-20l-35-34c-18-18-45-22-66-14l-12 5c-19 10-41 26-65 46-21 19-45 41-74 69-22 23-44 47-67 74-22 25-37 46-47 64l-5 13c-3 11-4 17-4 23 0 16 6 31 17 42l34 36c10 9 16 18 21 25 4 6 5 11 5 16 0 3-1 9-4 14-3 8-8 16-14 24l-106 149c-4 7-10 11-17 15-7 3-15 5-22 5z m380-558l-8-31 13 32c-3 1-4 0-5-1z" horiz-adv-x="1000" />

<glyph glyph-name="user" unicode="&#xe806;" d="M500 319c-132 0-240 107-240 239 0 132 108 240 240 240 132 0 240-108 240-240 0-132-108-239-240-239z m0 416c-97 0-177-79-177-177 0-97 80-177 177-177 98 0 177 80 177 177 0 98-79 177-177 177z m358-833c-17 0-31 14-31 31 0 144-147 261-327 261-180 0-327-117-327-261 0-17-14-31-31-31-17 0-31 14-31 31 0 178 174 323 389 323 215 0 389-145 389-323 0-17-14-31-31-31z" horiz-adv-x="1000" />

<glyph glyph-name="bag-2" unicode="&#xe807;" d="M688 490c-18 0-32 15-32 32v57c0 44-18 86-51 116-33 30-75 44-120 40-75-7-141-84-141-164v-41c0-17-14-31-31-31-18 0-32 14-32 31v41c0 112 91 216 198 226 62 6 122-14 168-56 46-41 72-100 72-162v-57c0-17-14-32-31-32z m-63-588h-250c-192 0-228 90-237 177l-32 249c-4 45-6 110 38 158 37 42 99 62 189 62h334c90 0 152-20 189-62 44-48 42-113 38-157l-31-250c-10-87-45-177-238-177z m-292 583c-70 0-118-13-143-41-20-22-27-57-22-109l32-249c7-67 25-122 175-122h250c150 0 168 55 175 121l32 250c5 51-2 86-22 109-25 28-73 41-143 41h-334z m310-183c-24 0-42 19-42 42 0 23 18 41 41 41 23 0 42-18 42-41 0-23-18-42-41-42z m-292 0c-23 0-42 19-42 42 0 23 19 41 41 41 23 0 42-18 42-41 0-23-18-42-41-42z" horiz-adv-x="1000" />

<glyph glyph-name="search-normal" unicode="&#xe808;" d="M479-56c-235 0-427 191-427 427 0 235 192 427 427 427 236 0 427-192 427-427 0-236-191-427-427-427z m0 791c-201 0-364-163-364-364 0-201 163-365 364-365 201 0 365 164 365 365 0 201-164 364-365 364z m438-833c-8 0-16 3-22 9l-84 83c-12 13-12 33 0 45 12 12 32 12 45 0l83-84c12-12 12-32 0-44-6-6-14-9-22-9z" horiz-adv-x="1000" />

<glyph glyph-name="angle-button-1" unicode="&#xe809;" d="M44 705c0 20 8 39 24 55 30 30 81 30 112 0l689-669c51-49 134-49 184 0l690 669c31 30 81 30 112 0 31-30 31-79 0-109l-690-669c-54-52-126-82-204-82-77 0-150 29-204 82l-689 669c-15 15-24 35-24 54z" horiz-adv-x="1923" />

<glyph glyph-name="menu" unicode="&#xe80a;" d="M875 527h-750c-17 0-31 14-31 31 0 17 14 32 31 32h750c17 0 31-15 31-32 0-17-14-31-31-31z m0-208h-750c-17 0-31 14-31 31 0 17 14 31 31 31h750c17 0 31-14 31-31 0-17-14-31-31-31z m0-209h-750c-17 0-31 15-31 32 0 17 14 31 31 31h750c17 0 31-14 31-31 0-17-14-32-31-32z" horiz-adv-x="1000" />

<glyph glyph-name="login" unicode="&#xe80b;" d="M635-78h-5c-185 0-275 73-290 236-2 17 11 33 28 35 17 1 33-12 35-29 12-131 73-179 227-179h5c170 0 230 60 230 229v272c0 169-60 229-230 229h-5c-155 0-216-49-227-182-3-18-17-30-35-29-17 1-30 17-28 34 14 166 103 240 290 240h5c205 0 292-88 292-292v-272c0-204-87-292-292-292z m-15 397h-537c-17 0-31 14-31 31 0 17 14 31 31 31h537c17 0 31-14 31-31 0-17-13-31-31-31z m-93-140c-8 0-16 3-22 9-12 12-12 32 0 45l118 117-118 118c-12 12-12 32 0 44 12 12 32 12 44 0l140-140c12-12 12-32 0-44l-140-140c-6-6-14-9-22-9z" horiz-adv-x="1000" />

<glyph glyph-name="logout" unicode="&#xe80c;" d="M635-78h-5c-185 0-275 73-290 236-2 17 11 33 28 35 17 1 33-12 35-29 12-131 73-179 227-179h5c170 0 230 60 230 229v272c0 169-60 229-230 229h-5c-155 0-216-49-227-182-3-18-17-30-35-29-17 1-30 17-28 34 14 166 103 240 290 240h5c205 0 292-88 292-292v-272c0-204-87-292-292-292z m-10 397h-474c-17 0-31 14-31 31 0 17 14 31 31 31h474c17 0 32-14 32-31 0-17-15-31-32-31z m-381-140c-8 0-16 3-22 9l-140 140c-12 12-12 32 0 44l140 140c12 12 32 12 44 0 12-12 12-32 0-44l-118-118 118-117c12-13 12-33 0-45-6-6-14-9-22-9z" horiz-adv-x="1000" />

<glyph glyph-name="angle-right" unicode="&#xe80d;" d="M36-142c-7 0-15 4-21 13-11 16-11 43 0 60l260 370c19 27 19 71 0 98l-260 370c-11 17-11 44 0 60 12 17 31 17 42 0l261-369c20-29 32-69 32-110 0-41-12-81-32-109l-261-370c-5-8-13-13-21-13z" horiz-adv-x="351" />

<glyph glyph-name="shopping-cart" unicode="&#xe80e;" d="M758 110h-444c-41 0-81 18-108 48-28 31-43 72-39 113l34 415c2 13-3 25-12 35-8 9-21 14-33 14h-73c-17 0-31 15-31 32 0 17 14 31 31 31h73c30 0 59-13 80-35 11-13 19-27 24-43h520c42 0 81-17 109-47 28-30 42-70 39-112l-22-313c-5-76-72-138-148-138z m-496 548l-33-392c-2-24 6-47 22-65 17-18 39-28 63-28h444c43 0 83 37 86 80l22 313c2 24-6 48-22 65-16 17-39 27-63 27h-519v0z m415-756c-46 0-83 38-83 83 0 46 37 84 83 84 46 0 83-38 83-84 0-45-37-83-83-83z m0 104c-12 0-21-9-21-21 0-11 9-20 21-20 12 0 21 9 21 20 0 12-9 21-21 21z m-333-104c-46 0-84 38-84 83 0 46 38 84 84 84 46 0 83-38 83-84 0-45-37-83-83-83z m0 104c-12 0-21-9-21-21 0-11 9-20 21-20 11 0 21 9 21 20 0 12-10 21-21 21z m531 479h-500c-17 0-31 15-31 32 0 17 14 31 31 31h500c17 0 31-14 31-31 0-17-14-32-31-32z" horiz-adv-x="1000" />

<glyph glyph-name="close-circle-1" unicode="&#xe80f;" d="M500-98c-247 0-448 201-448 448 0 247 201 448 448 448 247 0 448-201 448-448 0-247-201-448-448-448z m0 833c-212 0-385-172-385-385 0-212 173-385 385-385 213 0 385 173 385 385 0 213-172 385-385 385z m-118-534c-8 0-16 3-22 9-12 12-12 32 0 44l236 236c12 12 32 12 44 0 12-12 12-32 0-44l-236-236c-6-6-14-9-22-9z m236 0c-8 0-16 3-22 9l-236 236c-12 12-12 32 0 44 12 12 32 12 44 0l236-236c12-12 12-32 0-44-6-6-14-9-22-9z" horiz-adv-x="1000" />

<glyph glyph-name="arrow-double-left" unicode="&#xe810;" d="M594-2c-8 0-15 3-21 9l-258 258c-42 42-42 111 0 153l258 258c11 12 30 12 42 0 11-11 11-30 0-42l-258-258c-19-19-19-50 0-69l258-258c11-11 11-30 0-42-6-5-14-9-21-9z m250 0c-8 0-15 3-21 9l-258 258c-42 42-42 111 0 153l258 258c11 12 30 12 42 0 11-11 11-30 0-42l-258-258c-19-19-19-50 0-69l258-258c11-11 11-30 0-42-6-5-14-9-21-9z" horiz-adv-x="1200" />

<glyph glyph-name="bag-1" unicode="&#xe811;" d="M688 490c-18 0-32 15-32 32v57c0 44-18 86-51 116-33 30-75 44-120 40-75-7-141-84-141-164v-41c0-17-14-31-31-31-18 0-32 14-32 31v41c0 112 91 216 198 226 62 6 122-14 168-56 46-41 72-100 72-162v-57c0-17-14-32-31-32z m-63-588h-250c-192 0-228 90-237 177l-32 249c-4 45-6 110 38 158 37 42 99 62 189 62h334c90 0 152-20 189-62 44-48 42-113 38-157l-31-250c-10-87-45-177-238-177z m-292 583c-70 0-118-13-143-41-20-22-27-57-22-109l32-249c7-67 25-122 175-122h250c150 0 168 55 175 121l32 250c5 51-2 86-22 109-25 28-73 41-143 41h-334z m310-183c-24 0-43 19-43 42 0 23 19 42 42 42 23 0 42-19 42-42 0-23-19-42-41-42z m-292 0c-23 0-42 19-42 42 0 23 19 42 41 42 23 0 42-19 42-42 0-23-18-42-41-42z" horiz-adv-x="1000" />

<glyph glyph-name="save-2" unicode="&#xe812;" d="M138-98c-15 0-30 4-42 11-28 16-44 49-44 90v473c0 89 72 161 161 161h324c89 0 161-72 161-161v-473c0-41-16-73-44-90-28-16-64-14-99 5l-164 92c-8 4-25 4-33 0l-163-92c-19-11-39-16-57-16z m75 672c-54 0-98-44-98-99v-473c0-17 5-30 13-35 8-5 22-3 37 6l163 91c27 15 67 15 94 0l164-91c15-9 28-11 37-6 8 5 13 18 13 35v473c0 55-45 99-99 99h-324z m399-672c-18 0-37 5-57 16l-164 91c-8 4-25 4-33 0l-163-91c-35-20-72-21-99-5-28 16-44 49-44 89v473c0 89 72 161 161 161h324c89 0 161-72 161-161v-473c0-40-16-73-44-89-12-7-26-11-42-11z m-237 173c17 0 33-4 47-11l163-92c15-8 30-10 38-5 7 5 12 18 12 35v473c0 55-44 99-98 99h-324c-54 0-98-44-98-99v-473c0-17 5-30 13-35 7-5 22-2 37 6l163 91c14 7 30 11 47 11z m487-11c-18 0-37 5-57 16l-154 85c-10 6-16 16-16 27v283c0 54-44 98-98 98h-204c-17 0-31 14-31 32v32c0 88 72 160 161 160h324c89 0 161-72 161-160v-474c0-40-16-72-44-88-12-8-26-11-42-11z m-164 147l137-77c15-8 29-10 38-5 8 5 12 18 12 35v473c0 54-44 98-98 98h-324c-54 0-98-44-98-98v-1h172c89 0 161-72 161-161v-264z" horiz-adv-x="1000" />

<glyph glyph-name="star" unicode="&#xe813;" d="M508 60l-8 5-8-5-278-177 74 334 2 9-6 6-247 225 324 29 9 0 4 9 126 313 126-313 4-9 9 0 324-29-246-225-7-6 2-9 74-334-278 177z" horiz-adv-x="1000" />

<glyph glyph-name="medal-star" unicode="&#xe814;" d="M521 156c-17 0-34 2-50 4-89 13-170 62-222 136-36 52-55 112-55 175 0 173 147 314 327 314 180 0 327-141 327-314 0-63-19-123-55-175-52-74-133-123-223-136-15-2-32-4-49-4z m0 568c-145 0-263-114-263-253 0-51 15-100 43-141 42-59 108-99 180-109 27-5 54-5 78 0 74 10 140 50 181 109 29 42 44 90 44 141 1 139-117 253-263 253z m-233-804c-6 0-11 0-17 2-28 6-49 26-55 52l-15 60c-1 4-4 6-8 8l-69 15c-27 7-47 25-54 50-8 25 0 51 19 70l164 158c7 6 16 9 25 9 10-1 18-6 23-14 42-59 108-99 180-109 27-5 54-5 79 0 74 10 139 50 181 109 5 8 14 13 23 14 9 0 18-3 25-9l165-158c19-19 26-45 19-70-8-25-29-44-54-50l-70-15c-4-1-7-4-8-8l-15-60c-6-26-27-46-54-52-28-7-56 2-74 23l-177 196-177-196c-14-17-35-25-56-25z m-16 347l-139-134c-4-3-3-7-2-10 0-2 2-6 7-7l70-16c27-6 48-26 55-52l14-60c2-5 6-7 8-8 3 0 7 0 11 4l161 178c-71 14-137 51-185 105z m313-104l161-179c4-4 9-4 11-3 3 0 7 2 8 7l15 60c6 26 27 47 55 53l69 16c5 1 7 5 8 7 1 2 1 6-3 10l-138 133c-49-54-114-91-186-104z m16 150c-11 0-24 3-40 12l-40 23-40-23c-37-21-61-9-69-3-9 6-28 25-19 65l11 41-34 30c-19 18-26 40-19 59 6 20 25 33 51 37l45 8 21 45c13 23 32 36 53 36 22 0 41-13 53-36l25-48 41-5c26-4 45-18 51-37 7-20 0-41-19-59l-35-34 11-37c10-40-9-59-18-65-4-3-14-9-29-9z m-181 182l29-28c14-13 21-35 16-52l-8-33 34 19c18 10 43 10 60 0l34-19-7 33c-5 18 2 39 15 52l29 28-36 6c-18 3-36 16-44 31l-21 40-21-41c-8-15-25-28-43-30l-37-6z" horiz-adv-x="1050" />

<glyph glyph-name="mobile" unicode="&#xe815;" d="M640-99h-251c-184 0-240 55-240 234v407c0 179 56 234 240 234h251c184 0 240-55 240-234v-407c0-179-56-234-240-234z m-251 814c-150 0-178-28-178-173v-407c0-145 28-173 178-173h251c150 0 178 28 178 173v407c0 145-28 173-178 173h-251z m209-143h-167c-17 0-32 14-32 31 0 16 15 30 32 30h167c17 0 31-14 31-30 0-17-14-31-31-31z m-84-553c-53 0-96 42-96 94 0 51 43 93 96 93 53 0 96-42 96-93 0-52-43-94-96-94z m0 127c-18 0-33-15-33-33 0-18 15-33 33-33 19 0 34 15 34 33 0 18-15 33-34 33z" horiz-adv-x="1024" />

<glyph glyph-name="speaker" unicode="&#xe816;" d="M506-132h-277c-158 0-219 59-219 213v538c0 154 61 214 219 214h277c158 0 219-60 219-214v-538c0-154-61-213-219-213z m-277 897c-119 0-150-30-150-146v-538c0-116 31-146 150-146h277c119 0 150 30 150 146v538c0 116-31 146-150 146h-277z m307-231l-4-392c0-40-11-73-23-73-13 0-23 33-23 73l4 392c0 40 11 73 24 73 12 0 22-33 22-73z m-97-536c-58 0-106 46-106 103 0 57 48 103 106 103 59 0 106-46 106-103 0-57-47-103-106-103z m0 139c-20 0-37-16-37-36 0-19 17-35 37-35 21 0 37 16 37 35 0 20-16 36-37 36z m-71 224c-96 0-173 76-173 169 0 93 77 168 173 168 95 0 173-75 173-168 0-93-78-169-173-169z m0 270c-58 0-104-46-104-101 0-56 46-101 104-101 57 0 104 45 104 101 0 55-47 101-104 101z" horiz-adv-x="737" />

<glyph glyph-name="cpu" unicode="&#xe817;" d="M587-15h-190c-173 0-250 82-250 265v200c0 183 77 265 250 265h190c173 0 251-82 251-265v-200c0-183-78-265-251-265z m-190 667c-141 0-191-53-191-202v-200c0-149 50-202 191-202h190c141 0 191 53 191 202v200c0 149-50 202-191 202h-190z m154-542h-118c-114 0-168 57-168 178v125c0 120 54 177 168 177h118c115 0 168-57 168-177v-125c0-121-53-178-168-178z m-118 417c-82 0-109-28-109-114v-125c0-87 27-115 109-115h118c83 0 109 28 109 115v125c0 86-26 114-109 114h-118z m-98 125c-17 0-30 14-30 31v84c0 17 13 31 30 31 16 0 29-14 29-31v-84c0-17-13-31-29-31z m157 0c-16 0-29 14-29 31v84c0 17 13 31 29 31 16 0 30-14 30-31v-84c0-17-14-31-30-31z m158 0c-16 0-30 14-30 31v84c0 17 14 31 30 31 16 0 30-14 30-31v-84c0-17-14-31-30-31z m237-167h-79c-16 0-30 15-30 32 0 17 14 31 30 31h79c16 0 29-14 29-31 0-17-13-32-29-32z m0-166h-79c-16 0-30 14-30 31 0 17 14 31 30 31h79c16 0 29-14 29-31 0-17-13-31-29-31z m0-167h-79c-16 0-30 14-30 31 0 18 14 32 30 32h79c16 0 29-14 29-32 0-17-13-31-29-31z m-237-250c-16 0-30 14-30 31v84c0 17 14 31 30 31 16 0 30-14 30-31v-84c0-17-14-31-30-31z m-157 0c-17 0-30 14-30 31v84c0 17 13 31 30 31 16 0 29-14 29-31v-84c0-17-13-31-29-31z m-158 0c-17 0-30 14-30 31v84c0 17 13 31 30 31 16 0 29-14 29-31v-84c0-17-13-31-29-31z m-159 583h-79c-16 0-29 14-29 32 0 17 13 31 29 31h79c16 0 30-14 30-31 0-17-13-32-30-32z m0-166h-79c-16 0-29 14-29 31 0 17 13 31 29 31h79c16 0 30-14 30-31 0-17-13-31-30-31z m0-167h-79c-16 0-29 14-29 31 0 18 13 32 29 32h79c16 0 30-14 30-32 0-17-13-31-30-31z" horiz-adv-x="975" />

<glyph glyph-name="camera" unicode="&#xe818;" d="M682-99h-404c-107 0-176 68-182 181l-20 336c-3 51 13 99 46 136 33 37 79 59 127 59 12 0 24 7 30 20l28 58c23 47 80 84 129 84h89c49 0 106-37 129-84l27-59c6-12 18-19 30-19 48 0 94-22 127-59 33-37 50-85 47-136l-20-336c-7-115-74-181-183-181z m-246 813c-28 0-64-23-77-51l-28-58c-16-33-48-53-82-53-32 0-62-14-85-39-22-25-33-57-30-91l20-336c4-82 46-124 124-124h404c78 0 120 42 125 124l20 336c2 34-9 66-31 91-22 25-52 39-85 39-34 0-65 20-81 52l-28 59c-13 27-49 51-78 51h-88v0z m102-244h-116c-16 0-29 14-29 31 0 16 13 30 29 30h116c16 0 29-14 29-30 0-17-13-31-29-31z m-58-406c-85 0-154 72-154 162 0 90 69 163 154 163 85 0 154-73 154-163 0-90-69-162-154-162z m0 264c-53 0-96-46-96-102 0-56 43-101 96-101 53 0 96 45 96 101 0 56-43 102-96 102z" horiz-adv-x="951" />

<glyph glyph-name="ram-2" unicode="&#xe819;" d="M615-99h-270c-143 0-221 83-221 234v406c0 151 78 234 221 234h270c140 0 221-85 221-234v-41c0-39-30-71-67-71-5 0-10-4-10-10v-88c0-13 5-26 15-36l32-34c20-21 31-49 31-78v-48c-1-149-82-234-222-234z m-270 813c-110 0-163-57-163-173v-406c0-117 53-173 163-173h270c109 0 164 58 164 173v47c0 14-5 27-15 36l-32 34c-20 21-31 49-31 79v88c0 39 31 71 68 71 5 0 9 5 9 10v41c0 115-55 173-163 173h-270z m290-812c-16 0-29 13-29 30l-1 122c0 28-22 50-49 50h-154c-12 0-25-5-34-15-9-9-14-22-14-36l1-120c0-17-13-31-29-31-16 0-29 13-29 31l0 120c0 30 10 59 30 80 20 21 47 33 75 33h155c58 0 105-50 106-111l1-122c0-17-13-31-29-31 0 0 0 0 0 0z m-273 692h0c-16 0-29 14-29 31l2 118c1 16 13 30 29 30h1c15-1 28-14 28-31l-2-118c0-17-13-30-29-30z m116 0h-1c-15 0-28 14-28 31l2 117c0 17 13 30 29 30h0c16 0 29-14 29-30l-2-118c-1-17-13-30-29-30z m115 1h0c-16 1-29 14-29 31l2 118c1 16 13 30 29 30h1c15-1 28-15 28-31l-2-118c0-16-13-30-29-30z" horiz-adv-x="951" />

<glyph glyph-name="battery-full" unicode="&#xe81a;" d="M808 206c-16 0-29 14-29 31 0 17 13 30 29 30 22 0 27 4 28 4 0 3 0 17 0 27v81c0 10 0 24-1 28-1-1-6 3-27 3-16 0-29 14-29 30 0 17 13 31 29 31 80 0 86-42 86-92v-81c0-50-6-92-86-92z m-544 21c-3 0-5 0-7 1-16 4-25 20-21 37 11 48 11 99 0 148-4 16 5 32 21 37 15 4 31-7 35-23 13-58 13-119 0-177-4-14-16-23-28-23z m134 0c-2 0-4 0-7 1-15 4-25 20-21 37 12 48 12 99 0 148-4 16 6 32 21 37 16 4 32-6 35-23 14-58 14-119 0-177-3-14-15-23-28-23z m135 0c-2 0-4 0-7 1-15 4-25 20-21 37 12 48 12 99 0 148-4 16 6 32 21 37 16 4 31-6 35-23 14-58 14-119 0-177-3-14-15-23-28-23z m-15-203h-231c-169 0-221 54-221 233v163c0 179 52 234 221 234h231c170 0 222-55 222-234v-163c0-179-52-233-222-233z m-231 569c-137 0-163-28-163-173v-163c0-145 26-172 163-172h231c138 0 164 27 164 172v163c0 145-26 173-164 173h-231z" horiz-adv-x="951" />

<glyph glyph-name="warning-1" unicode="&#xe81b;" d="M500 423c-17 0-31-14-31-31v-219c0-17 14-31 31-31 17 0 31 14 31 31v219c0 17-14 31-31 31z m0 146c-11 0-22-4-30-12-3-4-6-9-9-14-2-5-3-10-3-16 0-11 5-22 12-29 16-16 44-16 60 0 7 7 12 18 12 29 0 6-2 11-4 16-2 5-5 10-8 14-8 8-19 12-30 12z m0 229c-28 0-56-7-81-22l-248-143c-50-29-81-82-81-140v-285c0-58 31-112 81-141l248-143c50-29 112-29 162 0l248 143c50 29 81 83 81 141v285c0 58-31 111-81 140l-248 143c-25 15-53 22-81 22z m0-833c-17 0-35 4-50 13l-247 143c-31 18-50 51-50 87v285c0 35 19 68 50 86l247 143c31 18 69 18 100 0l247-143c31-18 50-51 50-86v-285c0-36-19-69-50-87l-247-143c-15-9-33-13-50-13z" horiz-adv-x="1000" />

<glyph glyph-name="notification_important" unicode="&#xe81c;" d="M404-19c0-45 36-80 81-80 44 0 80 35 80 80h-161z m81 606c111 0 202-90 202-202v-282h-404v282c0 112 90 202 202 202z m0 182c-34 0-61-27-61-60v-48c-127-27-222-140-222-276v-242l-81-81v-40h728v40l-81 81v242c0 136-96 249-222 276v48c0 33-28 60-61 60z m-41-262h81v-162h-81v162z m0-243h81v-81h-81v81z" horiz-adv-x="970" />

<glyph glyph-name="archive-minus" unicode="&#xe81d;" d="M205-98c-17 0-33 4-48 13-32 18-50 56-50 103v588c0 106 86 192 192 192h402c106 0 192-86 192-192v-587c0-47-18-85-51-104-32-19-74-17-115 6l-203 113c-12 7-36 7-48 0l-204-113c-22-12-45-19-67-19z m94 833c-71 0-129-58-129-129v-587c0-25 7-43 19-50 13-8 32-5 53 7l204 113c31 17 77 17 108 0l203-113c22-12 41-15 54-7 12 7 19 26 19 50v587c0 71-58 129-129 129h-402z" horiz-adv-x="1000" />

<glyph glyph-name="share" unicode="&#xe81e;" d="M727 169c-30 0-58-13-79-32l-288 168c2 9 4 19 4 28 0 10-2 19-4 29l285 166c22-20 50-33 82-33 67 0 122 54 122 121 0 67-55 121-122 121-67 0-121-54-121-121 0-9 2-19 4-28l-285-166c-22 20-51 33-83 33-67 0-121-55-121-122 0-67 54-121 121-121 32 0 61 13 83 33l288-168c-2-9-4-18-4-26 0-66 53-119 118-119 65 0 118 53 118 119 0 65-53 118-118 118z m0 488c23 0 41-19 41-41 0-22-18-40-41-40-22 0-40 18-40 40 0 22 18 41 40 41z m-485-364c-22 0-40 18-40 40 0 23 18 41 40 41 23 0 41-18 41-41 0-22-18-40-41-40z m485-284c-22 0-40 19-40 41 0 22 18 40 40 40 23 0 41-18 41-40 0-22-18-41-41-41z" horiz-adv-x="970" />

<glyph glyph-name="money-time" unicode="&#xe81f;" d="M500 215c-74 0-135 60-135 135 0 75 61 135 135 135 75 0 136-60 136-135 0-75-61-135-136-135z m0 208c-40 0-73-33-73-73 0-40 33-73 73-73 40 0 73 33 73 73 0 40-33 73-73 73z m271-208c-17 0-31 14-31 31v208c0 17 14 31 31 31 17 0 31-14 31-31v-208c0-17-14-31-31-31z m-563-313c-109 0-198 89-198 198 0 109 89 198 198 198 109 0 198-89 198-198 0-109-89-198-198-198z m0 333c-74 0-135-60-135-135 0-75 61-135 135-135 75 0 136 60 136 135 0 75-61 135-136 135z m-41-208c-11 0-21 6-27 15-9 15-4 34 11 43l32 19c2 2 5 6 5 9v39c0 17 14 31 31 31 17 0 31-14 31-31v-39c0-25-14-50-35-63l-32-19c-5-3-11-4-16-4z m541-42h-354c-17 0-31 15-31 32 0 17 14 31 31 31h354c120 0 178 58 178 177v250c0 119-58 177-178 177h-416c-119 0-177-58-177-177v-258c0-17-14-32-32-32-17 0-31 15-31 32v258c0 152 88 240 240 240h416c153 0 240-88 240-240v-250c0-152-87-240-240-240z" horiz-adv-x="1000" />

<glyph glyph-name="minus-cirlce" unicode="&#xe820;" d="M497-98c-247 0-448 201-448 448 0 247 201 448 448 448 246 0 448-201 448-448 0-247-201-448-448-448z m0 833c-213 0-386-172-386-385 0-212 173-385 386-385 212 0 385 173 385 385 0 213-173 385-385 385z m166-416h-333c-17 0-31 14-31 31 0 17 14 31 31 31h333c18 0 32-14 32-31 0-17-14-31-32-31z" horiz-adv-x="1000" />

<glyph glyph-name="add-circle" unicode="&#xe821;" d="M500-98c-247 0-448 201-448 448 0 247 201 448 448 448 247 0 448-201 448-448 0-247-201-448-448-448z m0 833c-212 0-385-172-385-385 0-212 173-385 385-385 213 0 385 173 385 385 0 213-172 385-385 385z m167-416h-334c-17 0-31 14-31 31 0 17 14 31 31 31h334c17 0 31-14 31-31 0-17-14-31-31-31z m-167-167c-17 0-31 14-31 31v334c0 17 14 31 31 31 17 0 31-14 31-31v-334c0-17-14-31-31-31z" horiz-adv-x="1000" />

<glyph glyph-name="location-add" unicode="&#xe822;" d="M639 360h-229c-18 0-32 15-32 32 0 17 14 31 32 31h229c17 0 31-14 31-31 0-17-14-32-31-32z m-115-114c-17 0-31 14-31 31v229c0 17 14 32 31 32 17 0 31-15 31-32v-229c0-17-14-31-31-31z m0-344c-61 0-124 23-172 69-123 119-259 307-207 532 46 204 224 295 379 295 0 0 0 0 1 0 155 0 333-91 379-295 51-225-85-413-208-532-48-46-110-69-172-69z m0 833c-121 0-277-64-318-246-45-196 78-365 190-472 72-70 185-70 257 0 111 107 235 276 190 472-41 182-198 246-319 246z" horiz-adv-x="1042" />

<glyph glyph-name="info" unicode="&#xe823;" d="M500 767c231 0 417-186 417-417 0-231-188-417-417-417-229 0-417 186-417 417 0 110 45 217 123 294 77 78 183 123 294 123z m261-156c-144 145-378 145-521 0-143-144-144-378 0-521 145-143 378-144 521 0 70 70 108 163 108 261 0 96-38 191-108 260z m-261-82c26 0 49-22 49-48 0-27-23-49-49-49-26 0-49 22-49 49 0 26 23 48 49 48z m-24-162c0 9 12 18 24 18 13 0 24-9 24-18v-198c0-9-11-18-24-18-12 0-24 9-24 18v198z" horiz-adv-x="1000" />

<glyph glyph-name="check" unicode="&#xe824;" d="M438-150c-25 0-48 11-65 31l-346 395c-36 40-36 107 0 147 35 41 94 41 129 0l282-320 628 717c36 40 94 40 130 0 35-41 35-108 0-148l-694-791c-17-20-40-31-64-31z" horiz-adv-x="1222" />

<glyph glyph-name="close" unicode="&#xe825;" d="M382 201c-8 0-16 3-22 9-12 12-12 32 0 44l236 236c12 12 32 12 44 0 12-12 12-32 0-44l-236-236c-6-6-14-9-22-9z m236 0c-8 0-16 3-22 9l-236 236c-12 12-12 32 0 44 12 12 32 12 44 0l236-236c12-12 12-32 0-44-6-6-14-9-22-9z" horiz-adv-x="1000" />

<glyph glyph-name="sort" unicode="&#xe826;" d="M875 527h-750c-17 0-31 14-31 31 0 18 14 32 31 32h750c17 0 31-14 31-32 0-17-14-31-31-31z m-125-208h-500c-17 0-31 14-31 31 0 17 14 31 31 31h500c17 0 31-14 31-31 0-17-14-31-31-31z m-167-209h-166c-17 0-32 15-32 32 0 17 15 31 32 31h166c17 0 32-14 32-31 0-17-15-32-32-32z" horiz-adv-x="1000" />

<glyph glyph-name="filter" unicode="&#xe827;" d="M456-94c-20 0-40 5-58 15-37 21-59 58-59 99v221c0 21-14 52-27 68l-155 165c-27 26-47 71-47 105v96c0 67 51 119 115 119h550c63 0 115-51 115-115v-91c0-44-27-94-51-118l-181-160c-17-15-31-47-31-72v-180c0-37-23-80-52-97l-58-37c-19-12-40-18-61-18z m-231 825c-29 0-52-24-52-56v-96c0-15 12-45 28-61l159-167c21-26 42-70 42-109v-221c0-27 19-41 27-45 17-9 38-9 55 1l58 37c11 7 23 29 23 44v180c0 44 22 93 53 120l178 157c14 15 31 48 31 73v91c0 29-23 52-52 52h-550z m25-329c-6 0-11 2-17 5-14 9-19 28-10 43l206 329c9 15 28 19 43 10 14-9 19-28 10-43l-206-329c-6-10-16-15-26-15z" horiz-adv-x="1000" />

<glyph glyph-name="close-1" unicode="&#xe828;" d="M93-45c-23 0-47 9-66 28-36 36-36 96 0 132l708 708c36 36 96 36 132 0 36-36 36-96 0-133l-707-707c-18-19-43-28-67-28z m708 0c-24 0-48 9-66 28l-708 707c-36 37-36 97 0 133 36 36 96 36 133 0l707-708c36-36 36-96 0-132-19-19-42-28-66-28z" horiz-adv-x="1000" />

<glyph glyph-name="panel" unicode="&#xe829;" d="M500 653c-167 0-303-136-303-303 0-167 136-303 303-303 167 0 303 136 303 303 0 167-136 303-303 303z m0-547c-46 0-90 13-127 35 4 68 59 121 127 121 68 0 124-53 127-121-37-22-81-35-127-35z m-68 283c0 38 30 68 68 68 38 0 68-30 68-68 0-38-30-68-68-68-38 0-68 30-68 68z m247-205c-13 49-47 90-90 114 23 23 38 56 38 91 0 70-57 127-127 127-70 0-127-57-127-127 0-35 15-68 39-91-44-24-77-65-91-114-40 44-65 102-65 166 0 135 109 244 244 244 135 0 244-109 244-244 0-64-25-122-65-166z m292 273h-45c-10 42-27 82-49 118l32 32c5 5 8 13 8 21 0 7-3 15-8 20l-111 111c-5 5-13 8-20 8-8 0-16-3-21-8l-32-32c-36 22-76 39-118 49v45c0 16-13 29-29 29h-156c-16 0-29-13-29-29v-45c-42-10-82-27-118-49l-32 32c-5 5-13 8-21 8-7 0-15-3-20-8l-111-111c-11-11-11-30 0-41l32-32c-22-36-39-76-49-118h-45c-16 0-29-13-29-29v-156c0-16 13-29 29-29h45c10-42 27-82 49-118l-32-32c-11-11-11-30 0-41l111-111c11-11 30-11 41 0l32 32c36-22 76-39 118-49v-45c0-16 13-29 29-29h156c16 0 29 13 29 29v45c42 10 82 27 118 49l32-32c11-11 30-11 41 0l111 111c5 5 8 13 8 20 0 8-3 16-8 21l-32 32c22 36 39 76 49 118h45c16 0 29 13 29 29v156c0 16-13 29-29 29v0z m-30-156h-38c-14 0-26-10-29-24-10-50-29-97-58-140-8-12-7-27 3-37l28-28-69-69-28 28c-10 10-25 11-37 3-43-29-90-48-140-58-14-3-24-15-24-29v-38h-98v38c0 14-10 26-24 29-50 10-97 29-140 58-12 8-27 7-37-3l-28-28-69 69 28 28c10 10 11 25 3 37-29 43-48 90-58 140-3 14-15 24-29 24h-38v98h38c14 0 26 10 29 24 10 50 29 97 58 140 8 12 7 27-3 37l-28 28 69 69 28-28c10-10 25-11 37-3 43 29 90 48 140 58 14 3 24 15 24 29v38h98v-38c0-14 10-26 24-29 50-10 97-29 140-58 12-8 27-7 37 3l28 28 69-69-28-28c-10-10-11-25-3-37 29-43 48-90 58-140 3-14 15-24 29-24h38v-98z" horiz-adv-x="1000" />

<glyph glyph-name="like" unicode="&#xe82a;" d="M678-71h-158c-23 0-74 7-101 34l-126 98 38 49 129-100c10-10 37-18 60-18h158c38 0 78 30 87 64l100 306c7 18 6 35-3 47-9 13-26 21-46 21h-167c-21 0-41 9-55 25-14 16-21 38-17 60l21 134c5 23-11 49-34 57-20 7-46-3-56-17l-170-254-52 35 171 254c26 39 83 58 128 41 53-17 86-75 74-128l-20-132c-1-2-1-7 2-10 2-2 5-3 9-3h166c41 0 77-17 97-47 21-29 25-67 12-103l-100-304c-15-60-80-109-147-109z m-454 46h-42c-77 0-114 36-114 111v408c0 74 37 110 114 110h42c77 0 115-36 115-110v-408c0-75-38-111-115-111z m-42 567c-45 0-52-11-52-48v-408c0-38 7-48 52-48h42c45 0 52 10 52 48v408c0 37-7 48-52 48h-42z" horiz-adv-x="1000" />

<glyph glyph-name="dislike" unicode="&#xe82b;" d="M450-71c-12 0-24 2-35 6-52 17-86 75-74 128l20 132c1 3 1 7-2 10-2 2-5 3-9 3h-166c-41 0-76 17-97 47-21 29-25 67-12 103l100 304c15 60 80 109 147 109h158c23 0 74-7 101-34l127-98-39-49-129 100c-10 10-37 18-60 18h-158c-38 0-78-30-87-63l-100-307c-7-18-6-35 3-47 9-13 26-20 46-20h167c22 0 42-9 55-25 14-16 21-38 17-61l-20-133c-5-24 10-50 33-57 20-8 47 3 56 16l171 254 51-35-171-254c-19-29-56-47-93-47z m367 167h-41c-77 0-115 36-115 110v409c0 74 38 110 115 110h41c78 0 115-36 115-110v-409c0-74-37-110-115-110z m-41 567c-46 0-52-11-52-48v-409c0-37 6-48 52-48h41c46 0 53 11 53 48v409c0 37-7 48-53 48h-41z" horiz-adv-x="1000" />

<glyph glyph-name="dislike-bold" unicode="&#xe82c;" d="M650 621v-423c0-17-5-33-14-47l-114-169c-17-27-62-47-100-32-41 13-68 59-59 100l22 136c1 13-2 24-9 33-7 8-18 13-29 13h-171c-33 0-61 13-78 36-16 23-19 52-8 82l102 312c13 51 69 93 125 93h163c27 0 67-9 85-27l53-41c20-16 32-40 32-66z m133-505h43c64 0 91 25 91 87v419c0 61-27 86-91 86h-43c-65 0-91-25-91-86v-419c0-62 26-87 91-87z" horiz-adv-x="1000" />

<glyph glyph-name="like-bold" unicode="&#xe82d;" d="M350 80v423c0 17 5 33 14 47l114 169c17 27 62 46 100 32 41-14 68-60 59-101l-22-136c-1-12 2-24 9-32 7-8 18-13 29-13h171c33 0 61-14 78-37 16-22 19-52 8-81l-102-312c-13-52-69-94-125-94h-163c-27 0-67 10-85 27l-53 42c-20 15-32 40-32 66z m-133 504h-43c-64 0-91-25-91-86v-420c0-61 27-86 91-86h43c65 0 91 25 91 86v420c0 61-26 86-91 86z" horiz-adv-x="1000" />

<glyph glyph-name="arrow-right" unicode="&#xe82e;" d="M601 66c-8 0-15 3-22 9-12 12-12 32 0 44l231 231-231 231c-12 12-12 32 0 44 12 12 32 12 44 0l253-253c12-12 12-32 0-44l-253-253c-6-6-14-9-22-9z m246 253h-701c-17 0-31 14-31 31 0 17 14 31 31 31h701c17 0 31-14 31-31 0-17-14-31-31-31z" horiz-adv-x="1000" />

<glyph glyph-name="eye" unicode="&#xe82f;" d="M500 170c-99 0-180 80-180 180 0 100 81 180 180 180 100 0 181-80 181-180 0-100-81-180-181-180z m0 298c-65 0-118-53-118-118 0-65 53-118 118-118 65 0 118 53 118 118 0 65-53 118-118 118z m0-494c-157 0-305 92-406 251-44 69-44 181 0 250 102 159 250 251 406 251 156 0 304-92 406-251 44-69 44-181 0-250-102-159-250-251-406-251z m0 689c-135 0-263-80-353-222-32-48-32-133 0-182 90-141 218-222 353-222 135 0 263 81 353 222 32 49 32 134 0 182-90 142-218 222-353 222z" horiz-adv-x="1000" />

<glyph glyph-name="eye-slash" unicode="&#xe830;" d="M395 213c-8 0-16 3-22 9-35 35-53 80-53 128 0 100 81 180 180 180 48 0 93-18 128-53 5-5 9-13 9-22 0-8-4-16-9-22l-211-211c-6-6-14-9-22-9z m105 255c-65 0-118-53-118-118 0-21 6-41 16-58l160 160c-17 10-37 16-58 16z m-267-389c-7 0-14 2-20 7-45 38-85 85-119 139-44 69-44 181 0 250 102 159 250 251 406 251 92 0 182-32 261-91 14-11 17-30 7-44-11-14-30-17-44-6-69 51-146 78-224 78-135 0-263-80-353-222-32-48-32-133 0-182 31-49 67-91 106-125 13-11 15-31 4-44-6-7-15-11-24-11z m267-105c-55 0-110 11-162 34-16 6-23 25-16 40 6 16 25 24 40 17 45-19 91-28 138-28 134 0 263 81 353 222 31 49 31 134 0 182-13 21-27 40-42 59-11 13-9 33 4 44 14 11 33 9 45-5 16-20 32-41 46-64 44-69 44-181 0-250-102-159-250-251-406-251z m29 198c-15 0-28 11-31 26-3 17 8 33 25 36 46 8 84 47 93 92 3 17 19 28 36 25 17-3 29-19 25-36-13-72-71-129-142-143-2 1-4 0-6 0z m-446-270c-7 0-15 3-22 9-12 12-12 32 0 44l312 312c12 12 32 12 44 0 12-12 12-32 0-44l-311-312c-7-6-15-9-23-9z m522 522c-8 0-15 3-22 9-12 12-12 32 0 44l312 312c12 12 32 12 44 0 12-12 12-32 0-44l-312-312c-6-6-14-9-22-9z" horiz-adv-x="1000" />

<glyph glyph-name="angle-button" unicode="&#xe831;" d="M500 150c-29 0-58 11-81 33l-271 272c-12 12-12 32 0 44 12 12 32 12 44 0l272-271c20-20 52-20 72 0l272 271c12 12 32 12 44 0 12-12 12-32 0-44l-272-272c-22-22-51-33-80-33z" horiz-adv-x="1000" />

<glyph glyph-name="notification" unicode="&#xe832;" d="M501-6c-97 0-194 16-286 47-35 12-62 36-74 69-12 32-8 67 12 99l47 79c10 17 20 50 20 70v120c0 155 126 282 281 282 155 0 281-127 281-282v-120c0-19 9-53 19-70l48-79c18-30 21-67 9-99-12-33-38-58-71-69-92-31-189-47-286-47z m0 703c-121 0-219-98-219-219v-120c0-31-12-76-28-102l-48-79c-9-16-11-32-6-46 5-14 18-25 35-31 174-58 358-58 533 0 15 5 26 17 32 32 5 15 4 31-5 45l-47 79c-16 27-28 72-28 102v120c0 121-98 219-219 219z m77-11c-3 0-5 0-8 1-12 3-24 6-35 8-36 4-70 2-102-8-12-4-24 0-32 9-8 9-11 21-6 32 17 44 59 73 106 73 48 0 89-28 107-73 4-11 2-23-6-32-7-7-15-10-24-10z m-77-786c-41 0-81 16-111 45-29 30-45 70-45 111h62c0-25 10-49 28-66 17-18 41-28 66-28 52 0 94 42 94 94h62c0-86-70-156-156-156z" horiz-adv-x="1000" />

<glyph glyph-name="aparat-icon" unicode="&#xe833;" d="M427 821l-91 24c-19 5-39 6-59 4-20-3-40-10-57-20-18-10-33-23-45-39-12-16-21-35-26-54l-23-86c75 93 183 155 301 171v0z m-399-541l-23-84c-10-39-5-81 16-116 20-36 54-61 93-72l87-23c-93 73-155 178-173 295v0z m848 421l-97 26c49-37 90-85 121-139 31-54 51-113 59-175l26 101c11 40 5 81-15 116-21 36-54 61-94 71z m-315-811l93-26c40-10 81-4 117 16 35 20 60 54 71 93l26 99c-74-99-185-164-307-182v0z m-66 894c-85 0-168-25-238-72-71-47-126-114-159-193-32-78-41-165-24-248 17-83 57-160 117-220 60-60 137-101 220-117 84-17 170-8 248 24 79 32 146 88 193 158 47 71 73 154 73 239 0 114-46 223-126 303-81 81-190 126-304 126v0z m-243-214c5 24 16 46 33 63 17 17 39 29 63 34 24 5 48 3 71-7 22-9 41-24 55-44 14-20 21-44 21-68 0-25-7-48-20-69-13-20-33-36-55-45-22-10-47-12-71-8-15 3-31 10-44 18-13 9-25 21-34 34-9 13-15 28-19 44-3 16-3 32 0 48v0z m179-371c-5-24-17-46-34-63-17-17-39-29-62-34-24-5-49-2-71 7-23 9-42 25-55 45-14 20-21 44-21 68-1 24 6 48 20 68 13 20 32 36 55 45 22 10 47 12 70 8 16-3 31-9 45-18 13-9 25-21 34-34 9-13 15-28 18-44 4-16 4-32 1-48v0z m52 99c-11 2-21 7-28 15-8 8-13 17-15 28-3 10-2 21 2 31 4 10 11 19 20 25 9 6 20 9 30 9 11 0 22-3 31-9 9-5 16-14 20-24 4-10 5-21 3-31-1-7-4-14-8-20-3-6-9-11-14-15-6-4-13-7-20-9-7-1-14-1-21 0v0z m255-158c-4-24-16-46-33-63-17-17-39-29-62-34-24-5-49-3-71 7-23 9-42 24-56 44-13 20-21 44-21 68 0 25 7 48 21 69 13 20 32 36 54 45 23 10 47 12 71 8 16-3 31-10 44-18 14-9 25-21 34-34 9-13 16-28 19-44 3-16 3-32 0-48v0z m-81 227c-24 5-46 16-63 33-17 17-29 39-34 63-5 24-2 48 7 71 9 22 25 41 45 55 20 14 43 21 68 21 24 0 48-7 68-20 20-13 36-32 45-55 10-22 12-47 8-71-3-15-9-30-18-44-9-13-20-25-34-34-13-9-28-15-44-19-16-3-32-3-48 0v0z" horiz-adv-x="1000" />

<glyph glyph-name="sms" unicode="&#xe834;" d="M708-35h-416c-152 0-240 87-240 239v292c0 152 88 239 240 239h416c152 0 240-87 240-239v-292c0-152-88-239-240-239z m-416 708c-119 0-177-58-177-177v-292c0-119 58-177 177-177h416c120 0 177 58 177 177v292c0 119-57 177-177 177h-416z m208-359c-35 0-70 11-98 33l-130 104c-13 11-16 30-5 44 11 13 31 16 44 5l130-104c32-26 86-26 117 0l131 104c13 11 33 8 44-5 10-14 8-34-6-44l-130-104c-27-22-62-33-97-33z" horiz-adv-x="1000" />

<glyph glyph-name="signpost" unicode="&#xe835;" d="M718 444h-345c-23 0-46 8-65 23l-91 73c-25 20-39 49-39 81 0 32 14 62 39 81l91 73c19 15 42 23 65 23h345c57 0 104-47 104-104v-146c0-58-47-104-104-104z m-345 291c-9 0-18-3-25-9l-92-73c-10-8-16-20-16-32 0-13 6-25 16-33l92-73c7-5 16-9 25-9h345c22 0 41 19 41 42v146c0 23-19 41-41 41h-345z m255-708h-345c-57 0-104 47-104 104v146c0 58 47 104 104 104h345c23 0 46-8 65-23l91-73c25-20 39-49 39-81 0-31-14-61-39-81l-91-73c-19-15-42-23-65-23z m-345 292c-23 0-41-19-41-42v-146c0-23 18-41 41-41h345c9 0 18 3 25 9l92 73c10 8 16 20 16 32 0 13-6 25-16 33l-92 73c-7 5-16 9-25 9h-345z m217 0c-17 0-31 14-31 31v125c0 17 14 31 31 31 17 0 31-14 31-31v-125c0-17-14-31-31-31z m0-417c-17 0-31 14-31 31v125c0 17 14 32 31 32 17 0 31-15 31-32v-125c0-17-14-31-31-31z m125 0h-250c-17 0-31 14-31 31 0 17 14 32 31 32h250c17 0 31-15 31-32 0-17-14-31-31-31z" horiz-adv-x="1000" />

<glyph glyph-name="info-circle" unicode="&#xe836;" d="M500-98c-247 0-448 201-448 448 0 247 201 448 448 448 247 0 448-201 448-448 0-247-201-448-448-448z m0 833c-212 0-385-172-385-385 0-212 173-385 385-385 213 0 385 173 385 385 0 213-172 385-385 385z m0-458c-17 0-31 14-31 31v209c0 17 14 31 31 31 17 0 31-14 31-31v-209c0-17-14-31-31-31z m0-135c-5 0-11 1-16 3-5 2-9 5-14 9-3 4-6 8-8 14-2 5-4 10-4 15 0 6 2 11 4 16 2 5 5 10 8 14 5 4 9 7 14 9 10 4 22 4 32 0 5-2 9-5 14-9 3-4 6-9 8-14 2-5 4-10 4-16 0-5-2-10-4-15-2-6-5-10-8-14-5-4-9-7-14-9-5-2-11-3-16-3z" horiz-adv-x="1000" />

<glyph glyph-name="close-square" unicode="&#xe837;" d="M382 201c-8 0-16 3-22 9-12 12-12 32 0 44l236 236c12 12 32 12 44 0 12-12 12-32 0-44l-236-236c-6-6-14-9-22-9z m236 0c-8 0-16 3-22 9l-236 236c-12 12-12 32 0 44 12 12 32 12 44 0l236-236c12-12 12-32 0-44-6-6-14-9-22-9z m7-299h-250c-226 0-323 97-323 323v250c0 226 97 323 323 323h250c226 0 323-97 323-323v-250c0-226-97-323-323-323z m-250 833c-192 0-260-68-260-260v-250c0-192 68-260 260-260h250c192 0 260 68 260 260v250c0 192-68 260-260 260h-250z" horiz-adv-x="1000" />

<glyph glyph-name="vuesax_circle" unicode="&#xe838;" d="M500-98c-247 0-448 201-448 448 0 247 201 448 448 448s448-201 448-448c0-247-201-448-448-448z m0 833c-212 0-385-172-385-385s173-385 385-385 385 173 385 385-172 385-385 385z m-59-534a31 31 0 0 0-22 9l-118 118a31 31 0 0 0 0 44 31 31 0 0 0 44 0l96-96 214 214a31 31 0 0 0 44 0 31 31 0 0 0 0-44l-236-236a31 31 0 0 0-22-9z" horiz-adv-x="1000" />

<glyph glyph-name="vuesax_warning" unicode="&#xe839;" d="M500 277c-17 0-31 14-31 31v219c0 17 14 31 31 31 17 0 31-14 31-31v-219c0-17-14-31-31-31z m0-146a41 41 0 0 0-30 12 61 61 0 0 0-9 14 41 41 0 0 0-3 16c0 11 5 22 12 30 16 15 44 15 60 0 7-8 12-19 12-30 0-5-2-11-4-16a48 48 0 0 0-8-14 41 41 0 0 0-30-12z m0-229c-28 0-56 7-81 22l-248 143a164 164 0 0 0-81 140v285c0 58 31 112 81 141l248 143a162 162 0 0 0 162 0l248-143c50-29 81-83 81-141v-285c0-57-31-111-81-140l-248-143a162 162 0 0 0-81-22z m0 833c-17 0-35-4-50-13l-247-143a100 100 0 0 1-50-87v-285c0-35 19-68 50-86l247-143a99 99 0 0 1 100 0l247 143a100 100 0 0 1 50 86v285c0 36-19 69-50 87l-247 143a99 99 0 0 1-50 13z" horiz-adv-x="1000" />

<glyph glyph-name="archive-bold" unicode="&#xe83a;" d="M658 850h-459c-101 0-184-83-184-184v-671c0-86 62-122 137-80l232 129c25 14 65 14 89 0l233-129c75-42 136-6 136 80v671c0 101-82 184-184 184z m-110-448h-119-119c-20 0 0-24 0-4 0 19 0-67 0 4h119 119c19 0-238 20-238 0 0-19 257 0 238 0z" horiz-adv-x="857" />

<glyph glyph-name="arrow-swapl" unicode="&#xe83b;" d="M645-15c-7 0-15 3-22 9a31 31 0 0 0 0 44l209 209c12 12 32 12 44 0 12-12 12-32 0-44l-208-209c-7-6-15-9-23-9z m209 209h-708c-17 0-31 14-31 32s14 31 31 31h708c17 0 31-14 31-31s-14-32-31-32z m-708 249c-8 0-16 3-22 10a31 31 0 0 0 0 44l209 208c12 13 32 13 44 0 12-12 12-32 0-44l-209-208c-6-6-14-10-22-10z m708 0h-708c-17 0-31 14-31 32s14 31 31 31h708c17 0 31-14 31-31s-14-32-31-32z" horiz-adv-x="1000" />

<glyph glyph-name="bold_close-circle" unicode="&#xe83c;" d="M500 767c-230 0-417-187-417-417 0-230 187-417 417-417s417 187 417 417c0 230-187 417-417 417z m140-513a31 31 0 0 0 0-44 31 31 0 0 0-22-9 31 31 0 0 0-22 9l-96 96-96-96c-6-6-14-9-22-9a31 31 0 0 0-22 9 31 31 0 0 0 0 44l96 96-96 96a31 31 0 0 0 0 44 31 31 0 0 0 44 0l96-96 96 96a31 31 0 0 0 44 0 31 31 0 0 0 0-44l-96-96 96-96z" horiz-adv-x="1000" />

<glyph glyph-name="arrow-left" unicode="&#xe83d;" d="M625-11c-8 0-16 3-22 9l-272 272a114 114 0 0 0 0 160l272 272c12 12 32 12 44 0 12-12 12-32 0-44l-271-272c-20-20-20-52 0-72l271-272c12-12 12-32 0-44-6-6-14-9-22-9z" horiz-adv-x="1000" />

<glyph glyph-name="arrow-down" unicode="&#xe83e;" d="M500 150c-29 0-58 11-80 33l-272 272a31 31 0 0 0 0 44c12 12 32 12 44 0l272-271c20-20 52-20 72 0l272 271c12 12 32 12 44 0 12-12 12-32 0-44l-272-272c-22-22-51-33-80-33z" horiz-adv-x="1000" />

<glyph glyph-name="map" unicode="&#xe83f;" d="M849-30a31 31 0 0 0-22 9l-266 266a31 31 0 0 0 0 44l322 322c8 8 20 11 31 8 11-4 19-12 22-23 8-36 12-75 12-121v-250c0-115-24-193-77-246-5-6-14-7-22-9z m-221 297l219-219c26 40 39 97 39 177v250c0 17-1 33-2 48l-256-256z m-367-354c-2 0-4 1-7 1-138 32-202 131-202 311v250c0 226 97 323 323 323h250c180 0 279-64 311-202 2-11-1-22-8-29l-645-645a31 31 0 0 0-22-9z m114 822c-192 0-260-68-260-260v-250c0-145 40-217 137-246l618 619c-28 97-101 137-245 137h-250v0z m250-833h-250c-46 0-85 4-121 12a30 30 0 0 0-23 22c-3 11 0 22 8 31l322 322c12 12 32 12 44 0l266-266a31 31 0 0 0 0-44c-53-53-131-77-246-77z m-298 64c15-1 31-2 48-2h250c80 0 137 13 178 39l-220 220-256-257z m53 329c-26 0-52 10-73 30-67 63-93 132-77 199 15 69 76 116 150 116 74 0 135-47 150-116 16-68-11-136-77-199-20-20-47-30-73-30z m-90 215c-13-56 25-107 60-140 17-16 43-16 60 0 34 33 73 83 60 140-12 50-56 68-90 68-34 0-78-18-90-68z m91-55c-23 0-41 18-41 41s18 42 41 42h1c23 0 41-19 41-42s-19-41-42-41z" horiz-adv-x="1000" />

<glyph glyph-name="messages-3" unicode="&#xe840;" d="M704 58c-13 0-26 4-37 11l-40 26a32 32 0 0 0-13 35c3 10 4 21 4 33v170c0 68-42 110-110 110h-283c-5 0-10 0-14-1-9 0-17 3-24 9a30 30 0 0 0-10 23v115c0 123 86 208 208 208h355c122 0 208-85 208-208v-212c0-61-20-114-58-151-30-30-72-50-119-56v-46c0-25-14-47-36-59-10-5-20-7-31-7z m-25 78l27-15c3 1 3 3 3 4v75c0 17 14 31 31 31 44 0 81 14 106 40 27 26 40 62 40 106v213c0 88-57 145-146 145h-354c-89 0-146-57-146-145v-84h268c102 0 173-71 173-173v-169c0-10-1-19-2-28z m-426-234c-9 0-19 2-28 7a59 59 0 0 0-31 53v31c-37 6-69 22-94 46-31 31-48 75-48 125v169c0 95 62 164 153 172 7 1 13 1 20 1h283c102 0 173-71 173-173v-169c0-19-2-36-7-51-19-75-82-122-166-122h-104l-118-79c-10-7-21-10-33-10z m-28 542c-5 0-10-1-14-1-60-5-96-47-96-110v-169c0-34 10-61 30-81 19-19 47-30 80-30 17 0 31-14 31-31v-55l121 81c5 3 11 5 18 5h113c55 0 94 28 106 76 3 11 4 22 4 35v169c0 68-42 111-110 111h-283z" horiz-adv-x="1000" />

<glyph glyph-name="message-text" unicode="&#xe841;" d="M667-98h-542a73 73 0 0 0-73 73v542c0 184 97 281 281 281h334c184 0 281-97 281-281v-334c0-184-97-281-281-281z m-334 833c-149 0-218-69-218-218v-542a10 10 0 0 1 10-10h542c149 0 218 69 218 218v334c0 149-69 218-218 218h-334z m375-312h-416c-17 0-32 14-32 31 0 17 15 31 32 31h416c17 0 32-14 32-31 0-17-15-31-32-31z m-125-208h-291c-17 0-32 14-32 31 0 17 15 31 32 31h291c17 0 32-14 32-31 0-17-15-31-32-31z" horiz-adv-x="1000" />

<glyph glyph-name="location-tick" unicode="&#xe842;" d="M500-98a249 249 0 0 0-172 69c-123 119-259 307-207 532 46 204 224 295 379 295h1c155 0 333-91 379-295 51-225-85-413-208-532a249 249 0 0 0-172-69z m0 833c-121 0-277-64-318-246-45-196 78-365 190-472a184 184 0 0 1 257 0c111 107 234 276 190 472-41 182-198 246-319 246z m-52-458a31 31 0 0 0-22 9l-63 63a31 31 0 0 0 0 44 31 31 0 0 0 45 0l40-40 145 144a31 31 0 0 0 44 0 31 31 0 0 0 0-44l-167-167c-6-6-14-9-22-9z" horiz-adv-x="1000" />

<glyph glyph-name="gift" unicode="&#xe843;" d="M665-98h-333c-142 0-198 55-198 198v333c0 17 14 32 31 32h667c17 0 31-15 31-32v-333c0-143-55-198-198-198z m-468 500v-302c0-108 28-135 135-135h333c108 0 136 27 136 135v302h-604z m616 0h-625c-73 0-115 42-115 115v41c0 73 42 115 115 115h625c70 0 114-44 114-115v-41c0-71-44-115-114-115z m-625 208c-38 0-53-14-53-52v-41c0-38 15-52 53-52h625c36 0 52 15 52 52v41c0 37-16 52-52 52h-625z m297 1h-230c-9 0-17 3-23 10a71 71 0 0 0 2 97l59 59c28 28 73 28 101 0l113-113c9-9 12-23 7-34a31 31 0 0 0-29-19z m-207 62h132l-60 60a9 9 0 0 1-12 0l-60-59c0-1 0-1 0-1z m467-62h-230c-13 0-25 7-29 19-5 11-2 25 7 34l113 113c27 28 73 28 100 0l59-59c27-27 28-70 3-97-6-7-15-10-23-10z m-155 62h133l-1 1-59 59a9 9 0 0 1-13 0l-60-60z m-176-527a73 73 0 0 0-73 73v214c0 17 15 32 32 32h251c17 0 32-15 32-32v-213c0-27-15-52-39-65a73 73 0 0 0-75 4l-37 25a10 10 0 0 1-12 0l-39-26c-12-8-26-12-40-12z m-10 256v-183c0-5 3-8 5-9 2-1 7-2 11 0l39 26c25 17 57 17 81 0l37-25c4-3 9-1 11 0a10 10 0 0 1 5 9v183h-189v-1z" horiz-adv-x="1000" />

<glyph glyph-name="clipboard-text" unicode="&#xe844;" d="M625 310h-292c-17 0-31 15-31 32 0 17 14 31 31 31h292c17 0 31-14 31-31 0-17-14-32-31-32z m-109-166h-183c-17 0-31 14-31 31 0 17 14 31 31 31h183c17 0 31-14 31-31 0-17-14-31-31-31z m67 425h-166c-40 0-115 0-115 114 0 115 75 115 115 115h166c40 0 115 0 115-115 0-40 0-114-115-114z m-166 166c-42 0-52 0-52-52 0-52 10-52 52-52h166c52 0 52 11 52 52 0 52-10 52-52 52h-166z m208-833h-250c-234 0-281 108-281 281v250c0 190 69 272 238 280a32 32 0 0 0 33-29 31 31 0 0 0-30-33c-118-6-179-42-179-218v-250c0-154 31-218 219-218h250c188 0 219 64 219 218v250c0 176-61 212-179 218a32 32 0 0 0-30 33 32 32 0 0 0 33 30c170-9 238-91 238-280v-250c0-174-47-282-281-282z" horiz-adv-x="1000" />

<glyph glyph-name="box-time" unicode="&#xe845;" d="M500 296a31 31 0 0 0-16 4l-368 213c-15 9-20 28-11 43a31 31 0 0 0 43 11l352-204 350 203a32 32 0 0 0 43-11c9-15 3-35-11-43l-366-212c-5-3-11-4-16-4z m0-378c-17 0-31 14-31 32v378c0 17 14 31 31 31 17 0 31-14 31-31v-378c0-18-14-32-31-32z m0-16c-37 0-73 8-102 24l-222 124c-61 33-108 113-108 183v235c0 70 47 150 108 183l222 124c57 31 146 31 203 0l223-124c60-33 108-113 108-183v-235c0-3 0-7-2-13a31 31 0 0 0-51-17c-47 42-122 44-172 3a134 134 0 0 1-32-175c4-5 7-10 11-14 6-7 9-17 7-26a30 30 0 0 0-16-22l-76-42c-28-17-64-25-101-25z m0 834c-26 0-52-6-71-16l-222-124c-41-22-76-82-76-128v-235c0-46 36-106 76-128l222-124c38-21 104-21 142 0l47 26a195 195 0 0 0-24 94c0 61 27 117 74 155 57 45 138 55 202 27v186c0 46-36 106-76 128l-222 123c-20 10-46 16-72 16z m292-834a198 198 0 0 0-198 198c0 61 27 117 74 155a200 200 0 0 0 124 43 198 198 0 0 0 198-198 197 197 0 0 0-68-148 197 197 0 0 0-130-50z m0 333c-31 0-60-10-85-30a134 134 0 0 1-51-105 136 136 0 0 1 136-135 138 138 0 0 1 89 33 135 135 0 0 1 46 102 136 136 0 0 1-135 135z m-42-208c-10 0-21 6-27 15a31 31 0 0 0 11 43l37 22v45c0 17 14 31 32 31 17 0 31-14 31-31v-62c0-11-6-22-15-27l-52-31c-6-4-12-5-17-5z" horiz-adv-x="1000" />

<glyph glyph-name="profile-circle" unicode="&#xe846;" d="M505 286h-7c-95 3-165 77-165 168 0 92 75 168 167 168s168-76 168-168c0-91-71-165-162-168h-1z m-5 274c-58 0-105-48-105-106a105 105 0 0 1 101-105c1 0 5 0 9 0 56 3 100 49 100 105 0 58-47 106-105 106z m0-658a446 446 0 0 0-302 118c-8 6-11 16-10 26 5 49 36 96 87 130 125 82 326 82 450 0 51-35 82-81 87-130a30 30 0 0 0-10-26 446 446 0 0 0-302-118z m-247 152a384 384 0 0 1 247-89c90 0 178 31 247 89-8 26-28 50-57 70-103 69-277 69-380 0-29-20-49-44-57-70z m247-152c-247 0-448 201-448 448 0 247 201 448 448 448 247 0 448-201 448-448 0-247-201-448-448-448z m0 833c-212 0-385-172-385-385 0-212 173-385 385-385 213 0 385 173 385 385s-172 385-385 385z" horiz-adv-x="1000" />

<glyph glyph-name="add" unicode="&#xe847;" d="M750 319h-500c-17 0-31 14-31 31s14 31 31 31h500c17 0 31-14 31-31s-14-31-31-31z m-250-250c-17 0-31 14-31 31v500c0 17 14 31 31 31s31-14 31-31v-500c0-17-14-31-31-31z" horiz-adv-x="1000" />

<glyph glyph-name="edit" unicode="&#xe848;" d="M231 37c-25 0-49 8-66 25-22 20-32 51-29 84l16 135c3 26 18 59 36 78l342 362c86 90 175 93 265 7s93-174 8-265l-342-362c-18-18-50-36-76-40l-134-23c-7 0-13-1-20-1z m433 692c-32 0-60-20-88-50l-343-363c-8-8-17-29-19-41l-16-135c-1-14 2-25 10-32 7-8 18-10 32-8l134 23c12 2 32 13 41 22l342 362c51 55 70 106-5 176-34 32-62 46-88 46z m59-335h-3a286 286 0 0 0-255 241c-2 17 9 33 26 36 17 2 33-10 36-27a224 224 0 0 1 199-188c17-2 30-17 28-34-2-16-16-28-31-28z m152-492h-750c-17 0-31 14-31 31s14 32 31 32h750c17 0 31-15 31-32s-14-31-31-31z" horiz-adv-x="1000" />

<glyph glyph-name="signpost-1" unicode="&#xe849;" d="M718 444h-345c-23 0-46 8-65 23l-91 73c-25 20-39 49-39 81s14 62 39 81l91 73c19 15 42 23 65 23h345a104 104 0 0 0 104-104v-146a104 104 0 0 0-104-104z m-345 291c-9 0-18-3-25-9l-92-73a42 42 0 0 1-16-32c0-13 6-25 16-33l92-73c7-5 16-9 25-9h345c22 0 41 19 41 42v146c0 23-19 41-41 41h-345z m255-708h-345a104 104 0 0 0-104 104v146a104 104 0 0 0 104 104h345c23 0 46-8 65-23l91-73c25-20 39-49 39-81s-14-61-39-81l-91-73c-19-15-42-23-65-23z m-345 292c-23 0-41-19-41-42v-146c0-23 18-41 41-41h345c9 0 18 3 25 9l92 73a42 42 0 0 1 15 32 42 42 0 0 1-15 33l-92 73c-7 5-16 9-25 9h-345z m217 0c-17 0-31 14-31 31v125c0 17 14 31 31 31s31-14 31-31v-125c0-17-14-31-31-31z m0-417c-17 0-31 14-31 31v125c0 17 14 32 31 32s31-15 31-32v-125c0-17-14-31-31-31z m125 0h-250c-17 0-31 14-31 31s14 32 31 32h250c17 0 31-15 31-32s-14-31-31-31z" horiz-adv-x="1000" />

<glyph glyph-name="close-circle" unicode="&#xe84a;" d="M500-98c-247 0-448 201-448 448 0 247 201 448 448 448s448-201 448-448c0-247-201-448-448-448z m0 833c-212 0-385-172-385-385s173-385 385-385 385 173 385 385-172 385-385 385z m-118-534a31 31 0 0 0-22 9 31 31 0 0 0 0 44l236 236a31 31 0 0 0 44 0 31 31 0 0 0 0-44l-236-236a30 30 0 0 0-22-9z m236 0a31 31 0 0 0-22 9l-236 236a31 31 0 0 0 0 44 31 31 0 0 0 44 0l236-236a31 31 0 0 0 0-44c-6-6-14-9-22-9z" horiz-adv-x="1000" />

<glyph glyph-name="information" unicode="&#xe84b;" d="M501-98c-27 0-53 9-73 27l-66 56c-6 6-23 12-32 12h-73a112 112 0 0 0-111 111v72c0 8-6 25-12 31l-56 67c-35 40-35 104 0 145l56 66c6 6 12 23 12 32v71c0 61 50 111 111 111h72c9 0 25 7 32 12l66 57c41 34 105 34 146 0l65-57c7-5 24-11 33-11h71c61 0 111-50 111-112v-71c0-8 7-25 13-32l56-66c35-41 34-105 0-145l-56-66c-6-7-12-23-12-32v-71c0-61-50-112-112-112h-71c-8 0-25-6-32-12l-66-56c-20-18-47-27-72-27z m-244 739c-27 0-49-22-49-49v-71c0-24-11-54-26-72l-57-67c-14-17-14-47 0-64l56-66c15-17 27-48 27-72v-71c0-27 22-49 49-49h72c24 0 54-12 73-27l66-57c17-14 47-14 64 0l66 57c19 15 49 26 73 26h70c27 0 50 22 50 49v71c0 24 11 54 26 73l57 66c14 17 14 47 0 64l-56 66c-16 19-27 49-27 72v72c0 27-22 49-49 49h-71c-24 0-55 11-73 27l-66 56c-17 15-47 15-64 0l-66-56c-19-16-49-27-73-27h-72z m243-494c-23 0-42 19-42 42s19 41 42 41c23 0 42-18 42-41s-19-42-42-42z m0 131c-17 0-31 15-31 32v201c0 17 14 32 31 32s31-15 31-32v-201c0-17-13-32-31-32z" horiz-adv-x="1000" />

<glyph glyph-name="trash" unicode="&#xe84c;" d="M875 570h-3c-221 22-441 30-659 8l-85-8a32 32 0 0 0-34 28 31 31 0 0 0 28 34l85 8c221 23 446 14 671-8 17-2 30-17 28-34a31 31 0 0 0-31-28z m-521 42c-1 0-3 0-5 0a31 31 0 0 0-26 36l10 55c6 40 15 95 112 95h110c97 0 106-58 113-96l9-54a31 31 0 0 0-26-36 31 31 0 0 0-36 26l-9 54c-6 36-7 43-51 43h-109c-44 0-45-6-51-43l-10-54a31 31 0 0 0-31-26z m280-710h-268c-145 0-151 80-156 145l-27 420a32 32 0 0 0 30 33 32 32 0 0 0 33-29l27-419c5-64 6-88 93-88h268c87 0 89 24 93 88l27 419c1 17 16 30 34 29 17-1 30-15 29-33l-27-420c-5-65-11-145-156-145z m-65 229h-139c-17 0-31 14-31 32 0 17 14 31 31 31h139c17 0 31-14 31-31 0-18-14-32-31-32z m35 167h-208c-17 0-31 14-31 31 0 17 14 31 31 31h208c17 0 31-14 31-31 0-17-14-31-31-31z" horiz-adv-x="1000" />

<glyph glyph-name="bold-arrow-circle-left" unicode="&#xe84d;" d="M500 767c-229 0-417-187-417-417 0-230 188-417 417-417 230 0 417 187 417 417 0 230-187 417-417 417z m75-542a31 31 0 0 0 0-44c-7-6-14-9-22-9-8 0-16 3-22 9l-148 147a31 31 0 0 0 0 44l148 147a31 31 0 0 0 44 0 31 31 0 0 0 0-44l-125-125 125-125z" horiz-adv-x="1000" />

<glyph glyph-name="bold-arrow-circle-right" unicode="&#xe84e;" d="M500 767c-229 0-417-187-417-417 0-230 188-417 417-417 230 0 417 187 417 417 0 230-187 417-417 417z m116-439l-147-147c-6-6-14-9-22-9-8 0-16 3-22 9a31 31 0 0 0 0 44l125 125-125 125a31 31 0 0 0 0 44 31 31 0 0 0 44 0l147-147c13-12 13-32 0-44z" horiz-adv-x="1000" />

<glyph glyph-name="truck" unicode="&#xe84f;" d="M542 235h-459c-17 0-31 15-31 32v333a198 198 0 0 0 198 198h375c17 0 31-14 31-31v-417a115 115 0 0 0-114-115z m-427 63h427c28 0 52 23 52 52v385h-344a136 136 0 0 1-135-135v-302z m677-313h-42c-17 0-31 14-31 32a52 52 0 0 1-104 0c0-18-15-32-32-32h-166c-17 0-32 14-32 32a52 52 0 0 1-104 0c0-18-14-32-31-32h-42c-86 0-156 70-156 157v125c0 17 14 31 31 31h459c28 0 52 23 52 52v292c0 17 14 31 31 31h77c41 0 79-22 99-58l72-125c5-9 5-21 0-31a31 31 0 0 0-28-15h-53a10 10 0 0 1-11-11v-125a10 10 0 0 1 11-10h125c17 0 31-14 31-31v-125c0-87-70-157-156-157z m-15 63h15c51 0 93 42 93 94v93h-93a73 73 0 0 0-73 73v125c0 40 32 73 73 73l-45 78a52 52 0 0 1-45 26h-46v-260a115 115 0 0 0-114-115h-427v-93c0-52 42-94 93-94h15a115 115 0 0 0 110 83 115 115 0 0 0 111-83h113a115 115 0 0 0 110 83c53 0 96-35 110-83z m-444-146a115 115 0 0 0-114 115 115 115 0 0 0 114 114 115 115 0 0 0 115-114 115 115 0 0 0-115-115z m0 167a52 52 0 1 1 0-105 52 52 0 0 1 0 105z m334-167a115 115 0 0 0-115 115 115 115 0 0 0 115 114 115 115 0 0 0 114-114 115 115 0 0 0-114-115z m0 167a52 52 0 1 1 0-105 52 52 0 0 1 0 105z m250 166h-125a73 73 0 0 0-73 73v125a73 73 0 0 0 73 73h53c12 0 22-6 28-16l71-125c2-4 4-10 4-15v-83c0-17-14-32-31-32z m-125 209a10 10 0 0 1-11-11v-125a10 10 0 0 1 11-10h93v44l-58 102h-35z" horiz-adv-x="1000" />

<glyph glyph-name="clock" unicode="&#xe850;" d="M500-98c-247 0-448 201-448 448s201 448 448 448 448-201 448-448-201-448-448-448z m0 833c-212 0-385-172-385-385s173-385 385-385 385 173 385 385-172 385-385 385z m155-549a28 28 0 0 0-16 5l-129 77c-32 19-56 61-56 98v171c0 17 14 31 31 31s31-14 31-31v-171c0-15 13-37 26-44l129-77c15-9 19-28 11-43a32 32 0 0 0-27-16z" horiz-adv-x="1000" />

<glyph glyph-name="empty-wallet" unicode="&#xe851;" d="M739-98h-478c-104 0-188 84-188 188v280c0 104 84 188 188 188h478c104 0 188-84 188-188v-60c0-17-14-31-31-31h-84c-15 0-28-5-38-15l0-1c-12-11-17-26-16-42 2-28 29-50 59-50h79c17 0 31-14 31-31v-50c0-104-84-188-188-188z m-478 594c-69 0-126-56-126-126v-280c0-69 57-125 126-125h478c69 0 126 56 126 125v18h-48c-63 0-117 47-122 107-3 34 10 68 35 93 21 22 50 34 82 34h53v28c0 70-57 126-126 126h-478z m-157-194c-17 0-31 14-31 31v190c0 62 39 119 97 141l331 125c34 13 72 8 102-13 30-21 47-54 47-91v-158c0-17-14-31-31-31s-31 14-31 31v158c0 16-8 31-21 40-14 9-29 11-44 5l-331-125c-34-12-57-45-57-82v-190c0-18-14-31-31-31z m713-194c-63 0-117 47-122 107-3 35 10 68 35 93 21 22 50 34 81 34h87c41-2 73-34 73-74v-86c0-40-32-72-72-74h-82z m80 171h-85c-15 0-28-5-38-15-12-12-18-28-16-44 2-27 29-49 59-49h81c6 0 11 5 11 11v86c0 6-5 11-12 11z m-314 40h-291c-17 0-32 14-32 31s15 31 32 31h291c17 0 32-14 32-31s-15-31-32-31z" horiz-adv-x="1000" />

<glyph glyph-name="user-tag" unicode="&#xe852;" d="M500-98c-29 0-59 11-81 33l-71 71c-18 17-42 27-66 27h-32c-86 0-156 69-156 155v454c0 86 70 155 156 155h500c86 0 156-69 156-155v-454c0-86-70-155-156-155h-32a96 96 0 0 1-66-27l-71-71c-22-22-52-33-81-33z m-250 833c-52 0-94-41-94-92v-455c0-51 42-92 94-92h32c41 0 81-17 110-46l71-70c21-20 54-20 74 0l71 70c30 29 70 46 111 46h31c52 0 94 41 94 92v455c0 51-42 92-94 92h-500z m250-333c-71 0-128 58-128 128 0 71 57 129 128 129 71 0 128-58 128-129 0-70-57-128-128-128z m0 194c-36 0-66-29-66-66 0-36 30-65 66-65 36 0 66 29 66 65 0 37-30 66-66 66z m167-430c-17 0-32 15-32 32 0 57-60 104-135 104s-135-47-135-104c0-17-15-32-32-32s-31 15-31 32c0 92 89 167 198 167s198-75 198-167c0-17-14-32-31-32z" horiz-adv-x="1000" />

<glyph glyph-name="warning-2" unicode="&#xe853;" d="M500 277c-17 0-31 14-31 31v219c0 17 14 31 31 31s31-14 31-31v-219c0-17-14-31-31-31z m0-146a41 41 0 0 0-30 12c-3 5-6 9-9 14a41 41 0 0 0-3 16c0 11 5 22 12 30 16 15 44 15 60 0 7-8 12-19 12-30 0-5-2-11-4-16s-5-9-8-14a41 41 0 0 0-30-12z m0-229c-28 0-56 7-81 22l-248 143c-50 29-81 83-81 141v285c0 57 31 111 81 140l248 143c50 29 112 29 162 0l248-143c50-29 81-83 81-140v-285c0-58-31-112-81-141l-248-143c-25-15-53-22-81-22z m0 833c-17 0-35-4-50-13l-247-143c-31-18-50-51-50-86v-285c0-36 19-69 50-87l247-143c31-18 69-18 100 0l247 143c31 18 50 51 50 87v285c0 35-19 68-50 86l-247 143c-15 9-33 13-50 13z" horiz-adv-x="1000" />

<glyph glyph-name="comparing" unicode="&#xe854;" d="M208-69a175 175 0 0 0-116 158 45 45 0 0 0 2 15l156 521a21 21 0 0 0 21 17l142 26c0 7 0 15 2 22a108 108 0 0 0 207 23 7 7 0 0 1 9-5l138 25c15 3 19 0 23-14 50-163 99-325 148-488l9-28c3-10 4-20 4-30a198 198 0 0 0-7-30 175 175 0 0 0-341 20 96 96 0 0 0 3 45c49 161 98 323 147 485l3 11-128-24a249 249 0 0 0-4-30 107 107 0 0 0-204-15c0 3-2 7-7 5l-129-23v-10c51-167 101-334 152-500 4-18 3-37-3-55a175 175 0 0 0-147-130 153 153 0 0 0-80 9z m-83 178h284l-142 469-142-469z m796 94l-143 469h-2l-142-469h287z m-292-27a147 147 0 0 1 292 0h-292z m-510-94a147 147 0 0 1 158-134c72 4 142 75 135 134h-293z m401 673a80 80 0 0 1-79-84 83 83 0 0 1 83-80 81 81 0 1 1-4 162l0 2z m2-167a83 83 0 1 1 0 167 83 83 0 0 1 0-167z" horiz-adv-x="1000" />

<glyph glyph-name="bold-play-circle" unicode="&#xe855;" d="M499 767c-230 0-417-187-417-417s187-417 417-417 416 187 416 417-186 417-416 417z m125-510l-121-69a95 95 0 0 0-96 0 95 95 0 0 0-48 83v139c0 35 18 66 48 84 30 17 66 17 96 0l121-70c30-17 48-48 48-83 0-35-18-66-48-84z" horiz-adv-x="1000" />

<glyph glyph-name="truck-fast" unicode="&#xe856;" d="M542 235h-42c-17 0-31 15-31 32 0 17 14 31 31 31h42c29 0 52 23 52 52v385h-344a136 136 0 0 1-118-69c-9-15-28-21-43-12a31 31 0 0 0-12 42c35 63 101 102 173 102h375c17 0 31-14 31-31v-417a115 115 0 0 0-114-115z m250-250h-42c-17 0-31 15-31 32a52 52 0 0 1-104 0c0-17-15-32-32-32h-166c-17 0-32 15-32 32a52 52 0 0 1-104 0c0-17-14-32-31-32h-42c-86 0-156 70-156 157 0 17 14 31 31 31 17 0 32-14 32-31 0-52 42-94 93-94h15a115 115 0 0 0 110 83 115 115 0 0 0 111-83h113a115 115 0 0 0 110 83 115 115 0 0 0 111-83h14c51 0 93 42 93 94v93h-93a73 73 0 0 0-73 73v125c0 40 32 73 73 73l-45 78a52 52 0 0 1-45 26h-46v-260a115 115 0 0 0-114-115h-42c-17 0-31 15-31 32 0 17 14 31 31 31h42c28 0 52 23 52 52v292c0 17 14 31 31 31h77c41 0 79-22 99-58l72-125c5-9 5-21 0-31a31 31 0 0 0-28-15h-53a10 10 0 0 1-11-11v-125a10 10 0 0 1 11-10h125c17 0 31-14 31-31v-125c0-87-70-157-156-157z m-459-83a115 115 0 0 0-114 115 115 115 0 0 0 114 114 115 115 0 0 0 115-114 115 115 0 0 0-115-115z m0 167a52 52 0 1 1 0-105 52 52 0 0 1 0 105z m334-167a115 115 0 0 0-115 115 115 115 0 0 0 115 114 115 115 0 0 0 114-114 115 115 0 0 0-114-115z m0 167a52 52 0 1 1 0-105 52 52 0 0 1 0 105z m250 166h-125a73 73 0 0 0-73 73v125a73 73 0 0 0 73 73h53c12 0 22-6 28-16l71-125c2-4 4-10 4-15v-83c0-17-14-32-31-32z m-125 209a10 10 0 0 1-11-11v-125a10 10 0 0 1 11-10h93v44l-58 102h-35z m-459 41h-250c-17 0-31 15-31 32 0 17 14 31 31 31h250c17 0 32-14 32-31 0-17-15-32-32-32z m-83-125h-167c-17 0-31 15-31 32 0 17 14 31 31 31h167c17 0 31-14 31-31 0-17-14-32-31-32z m-83-125h-84c-17 0-31 15-31 32 0 17 14 31 31 31h84c17 0 31-14 31-31 0-17-14-32-31-32z" horiz-adv-x="1000" />

<glyph glyph-name="message-question" unicode="&#xe857;" d="M333-80c-11 0-23 3-34 9a73 73 0 0 0-39 64v59c-125 13-208 105-208 238v250c0 143 96 240 240 240h416c144 0 240-97 240-240v-250c0-143-96-240-240-240h-157l-177-118c-12-8-26-12-41-12z m-41 797c-108 0-177-69-177-177v-250c0-107 69-177 177-177 17 0 31-14 31-31v-89c0-5 3-8 5-9 2-1 7-2 11 0l186 124c5 3 11 5 17 5h167c107 0 177 70 177 177v250c0 108-70 177-177 177h-417z m208-371c-17 0-31 14-31 31v9c0 48 35 72 49 81 15 10 20 17 20 28 0 21-17 38-38 38-21 0-38-17-38-38 0-17-14-31-31-31-17 0-31 14-31 31a101 101 0 0 0 100 100 101 101 0 0 0 100-100c0-47-35-71-47-80-17-11-22-18-22-30v-8c0-18-14-32-31-32z m0-104c-17 0-31 14-31 31 0 17 14 31 31 31 17 0 31-14 31-31 0-17-13-31-31-31z" horiz-adv-x="1000" />

<glyph glyph-name="star-1" unicode="&#xe858;" d="M736-95c-22 0-51 7-86 28l-125 74c-12 8-37 8-50 0l-125-74c-74-43-117-26-137-12-19 14-49 51-29 134l29 128c4 13-3 36-13 46l-103 104c-52 51-48 95-41 117 7 22 30 60 102 72l132 22c13 2 31 16 36 27l74 147c33 67 77 77 100 77 23 0 67-10 100-77l73-147c6-11 24-24 37-26l133-22c72-13 94-51 101-73 6-21 11-65-41-117l-103-104c-10-10-16-32-13-46l29-128c19-83-10-120-29-134-11-7-27-16-51-16z m-236 170c20 0 41-5 57-14l125-74c36-22 59-22 68-15 8 6 15 28 5 69l-29 128c-8 34 5 79 30 104l103 104c21 20 30 40 26 54-5 14-24 25-52 29l-133 23c-32 5-67 31-82 60l-73 147c-14 26-30 42-45 42-15 0-31-16-44-42l-74-147c-14-29-49-55-82-60l-132-23c-28-4-48-15-52-29-5-14 5-34 25-54l104-104c25-25 38-70 30-104l-30-128c-10-41-3-63 6-69 9-7 31-6 68 15l124 74c16 9 37 14 57 14z" horiz-adv-x="1000" />

<glyph glyph-name="insurance" unicode="&#xe859;" d="M159 772c20-9 38-17 57-24a401 401 0 0 1 108-30 235 235 0 0 1 115 17c23 10 45 22 67 32a13 13 0 0 0 15 0 358 358 0 0 1 125-47 232 232 0 0 1 112 9c33 11 65 25 98 37l11 4v-11c0-158 0-316 0-474a226 226 0 0 0-53-145 712 712 0 0 0-296-221 15 15 0 0 0-11 0 788 788 0 0 0-306 238 186 186 0 0 0-43 118q0 245 0 490s1 4 1 7z m66-100a24 24 0 0 1 0-4c0-130 0-258 0-387a128 128 0 0 1 29-81 727 727 0 0 1 255-207 14 14 0 0 1 11 0 629 629 0 0 1 251 201 140 140 0 0 1 29 86q0 191 0 383c0 3 0 6 0 9-4 0-8-2-11-3a395 395 0 0 0-87-17 348 348 0 0 0-160 31c-11 4-19 11-28 11a84 84 0 0 1-28-12 319 319 0 0 0-208-24c-17 5-35 9-53 14z m251-447l-154 153 47 47 107-107 194 194 47-46z" horiz-adv-x="1000" />

<glyph glyph-name="warranty" unicode="&#xe85a;" d="M846 571c-8-33 8-63 33-92 42-46 42-75 0-121-25-29-37-58-33-95 4-25 4-55-17-75-12-17-4-34 4-50 17-30 34-59 50-88 17-29 9-46-29-42-33 5-66 34-96 13-25-17-20-59-33-88-4-12-8-25-25-25-17 0-21 13-29 21-17 25-29 50-42 75-46 92-191 92-233 0-13-25-29-50-42-75-21-37-37-42-54-4-12 29-4 75-37 92-30 16-63-13-92-13-38-4-46 13-29 42 8 17 16 33 25 46 21 37 54 75 16 121-4 8-4 20-4 29 17 50-8 87-41 125-30 33-30 71 0 104 33 33 50 67 37 112-4 55 25 88 75 96 46 9 75 29 92 71 25 46 62 58 112 33 38-20 75-20 117-4 58 25 83 17 117-37 20-34 41-54 79-63 66-12 79-33 79-108z m-46-4c4 33 0 66-46 75-50 4-83 29-104 75-17 33-42 41-75 25-42-21-83-25-129 0-33 16-58 4-75-29-21-42-54-67-100-71-33-4-50-25-46-59 8-50-8-95-46-129-25-21-25-46 0-71 38-37 50-79 46-129-4-33 13-54 46-58 50-8 83-33 104-75 17-33 42-42 75-25 42 25 83 25 129 0 38-21 59-8 79 25 21 37 50 67 96 71 42 4 59 29 50 71-8 45 9 83 42 116 29 29 29 54 0 84-38 25-54 58-46 104z m-467-588c17 34 50 54 25 88-25 33-37 91-91 83-42-4-46-54-67-87 100 8 100 8 133-84z m363-4c12 63 25 121 100 88 8-5 17 0 21 12 8 29-46 79-75 71-46-17-59-63-79-96-17-25 12-42 33-75z m-183 688c133 0 245-109 250-242 0-133-113-250-246-250-134 0-246 112-246 246-8 129 104 241 242 246z m0-446c116 0 200 83 200 200 0 108-92 200-200 200-113 0-200-92-200-204 0-109 87-196 200-196z m-130 233c25-8 42-29 59-50 25-29 46-29 75 0 33 38 66 67 100 100 8 8 21 21 37 13 17-17 4-30-8-42-46-46-92-92-138-138-8-8-25-20-37-12-42 29-75 62-104 104-9 13 0 25 16 25z" horiz-adv-x="1000" />

<glyph glyph-name="arrow-square-up" unicode="&#xe85b;" d="M625-98h-250c-226 0-323 97-323 323v250c0 226 97 323 323 323h250c226 0 323-97 323-323v-250c0-226-97-323-323-323z m-250 833c-192 0-260-68-260-260v-250c0-192 68-260 260-260h250c192 0 260 68 260 260v250c0 192-68 260-260 260h-250z m272-477c-8 0-16 3-22 9l-125 125-125-125c-12-12-32-12-44 0a31 31 0 0 0 0 44l147 147c12 12 32 12 44 0l147-147c12-12 12-32 0-44-6-6-14-9-22-9z" horiz-adv-x="1000" />

<glyph glyph-name="myket-cart" unicode="&#xe85c;" d="M311 186a127 127 0 0 1-126-126 127 127 0 0 1 126-127 127 127 0 0 1 127 127 127 127 0 0 1-127 126z m0-176c-28 0-50 22-50 50 0 28 22 50 50 50 28 0 50-22 50-50 0-28-22-50-50-50z m277 176a127 127 0 0 1-127-126 127 127 0 0 1 127-127 127 127 0 0 1 126 127 127 127 0 0 1-126 126z m0-176c-28 0-50 22-50 50 0 28 22 50 50 50 27 0 50-22 50-50 0-28-23-50-50-50z m297 758h-63c-40 0-73-26-83-65l-21-84-553-1c-26 0-50-12-64-35a76 76 0 0 1-7-70l73-221v-2c18-47 64-77 114-77h337c49 0 92 33 104 81l72 320 19 72c1 4 5 8 9 8h63c21 0 37 17 37 38 0 21-16 36-37 36z m-236-457c-3-14-16-23-31-23h-337a45 45 0 0 0-43 29l-67 205c-3 11 4 21 15 21h495c11 0 19-10 16-21l-48-211z" horiz-adv-x="1000" />

<glyph glyph-name="myket-person" unicode="&#xe85d;" d="M815 40c0-27-11-55-32-75-19-21-45-32-75-32h-416a107 107 0 0 0-75 31 107 107 0 0 0-31 75c0 100 21 178 71 232 51 55 129 83 244 83 116 0 193-29 245-83 48-54 69-132 69-231z m-315 727c53 0 103-21 139-59 76-76 76-201 0-277-76-77-201-77-278 0-76 76-76 201 0 277a192 192 0 0 0 139 59z m86-111a121 121 0 0 1-171 0 121 121 0 0 1 0-171 121 121 0 0 1 171 0c47 46 47 123 0 171z m150-639a26 26 0 0 1 7 18c0 83-14 144-51 184-36 39-97 60-193 60-96 0-157-21-193-59-37-41-52-102-52-185 0-7 3-13 7-18a26 26 0 0 1 18-7h436c10 0 17 3 21 7z" horiz-adv-x="1000" />

<glyph glyph-name="search-header" unicode="&#xe85e;" d="M453 850c83 0 165-23 235-67 71-44 127-107 164-182 36-74 51-157 43-240-9-83-40-161-91-227l207-206c8-9 13-21 12-32 0-12-4-24-13-32-8-9-20-14-32-14-12 0-23 5-32 13l-205 205c-54-46-119-79-189-95-69-16-142-14-211 4-69 18-133 52-186 101-53 48-93 108-118 175-25 67-33 139-24 210 9 71 35 138 76 197 41 59 96 107 159 140 63 33 134 50 205 50l0 0z m250-194c-49 49-112 83-181 96-68 14-139 7-204-20-64-26-119-72-158-130-39-58-60-126-60-196 0-70 21-138 60-196 39-58 94-103 158-130 65-27 136-34 204-20 69 14 132 47 181 97 2 2 4 4 6 6l0 0 0 0c64 67 98 156 97 248-1 92-38 180-103 245v0z" horiz-adv-x="1033" />

<glyph glyph-name="bars" unicode="&#xe85f;" d="M85 693h1030c38 0 68 30 68 67 0 38-30 68-68 68h-1030c-37 2-67-28-67-65 0-38 30-70 67-70z m1028-275h-1025c-38 0-68-30-68-68 0-37 30-67 68-67h1030c37 0 67 30 67 67 0 38-35 68-72 68z m0-410h-1025c-38 0-68-31-68-68 0-38 30-68 68-68h1030c37 0 67 30 67 68-2 37-35 68-72 68z" horiz-adv-x="1200" />

<glyph glyph-name="myket-login" unicode="&#xe860;" d="M881 388h-484l92 91c15 15 15 39 0 54-15 16-39 16-54 0l-156-157c-15-15-15-38 0-54l157-157c15-15 39-15 54 0 16 16 16 39 0 54l-91 92h483c21 0 37 17 37 38 0 20-18 39-38 39z m-310-262c-21 0-38-16-38-37v-51c0-16-12-30-29-30h-315c-15 0-29 13-29 30v625c0 15 12 29 29 29h315c15 0 29-13 29-29v-52c0-21 17-37 38-37 21 0 37 16 37 37v52c0 56-47 104-104 104h-315c-57 0-104-48-104-104v-627c0-57 47-104 104-104h315c57 0 104 47 104 104v52c0 20-16 38-37 38z" horiz-adv-x="1000" />

<glyph glyph-name="history" unicode="&#xe861;" d="M500 767a417 417 0 1 0 0-834 417 417 0 0 0 0 834z m259-158a366 366 0 1 1-518-518 366 366 0 0 1 518 518z m-284-34a25 25 0 0 0 50 0h-50z m0-225v225h50v-225l-43-18-7 18z m50 0a25 25 0 0 0-50 0h50z m112-172l-155 154 36 36 155-155-36-35z m36 35a25 25 0 1 0-36-35l36 35z" horiz-adv-x="1000" />

<glyph glyph-name="search-narrow" unicode="&#xe862;" d="M910-24l-179 178a368 368 0 0 1 91 243c0 204-165 370-369 370a369 369 0 0 1-370-370c0-204 166-369 370-369a368 368 0 0 1 243 92l178-178a26 26 0 0 1 36 0 24 24 0 0 1 0 34z m-777 421a320 320 0 0 0 639 0 320 320 0 0 0-639 0z" horiz-adv-x="1000" />

<glyph glyph-name="reject" unicode="&#xe863;" d="M213 583a38 38 0 1 0 54 54l233-233 233 233a38 38 0 1 0 54-54l-233-233 233-233a38 38 0 0 0-54-54l-233 233-233-233a38 38 0 0 0-54 54l233 233-233 233z" horiz-adv-x="1000" />

<glyph glyph-name="myket-filter" unicode="&#xe864;" d="M871 767h-742c-28 0-44-31-28-54l280-400c5-9 8-19 8-27v-319c0-24 24-41 46-32l155 61c13 5 21 17 21 30v260c0 14 4 27 13 38l276 387c17 24 0 56-29 56z m-38-64l-261-371a50 50 0 0 1-8-28v-259c0-6-4-12-10-14l-104-38c-7-3-15 3-15 10v305a50 50 0 0 1-10 31l-257 360c-5 8 0 21 11 21h646c8 0 14-10 8-17z" horiz-adv-x="1000" />

<glyph glyph-name="myket-sort" unicode="&#xe865;" d="M229 694a24 24 0 0 0 48 0v-631l164 164a24 24 0 0 0 33-34l-204-204 0-1-1 0 0 0 0 0 0-1-1 0 0 0 0 0 0 0-1-1 0 0 0 0 0 0-1 0 0 0 0-1 0 0-1 0 0 0 0 0 0 0-1 0 0 0 0-1 0 0-1 0 0 0 0 0-1 0 0 0 0-1-1 0 0 0 0 0a23 23 0 0 0-6-1h-3a24 24 0 0 0-17 7l-205 204a24 24 0 1 0 34 34l165-165v632 0z m155-105a24 24 0 1 0 0 48h569a24 24 0 0 0 0-48h-570z m120-284a24 24 0 1 0 0 47h449a24 24 0 0 0 17-41 24 24 0 0 0-17-6h-449z m136-287a24 24 0 0 0-18 41 24 24 0 0 0 18 7h313a24 24 0 1 0 0-48h-313z" horiz-adv-x="1000" />

<glyph glyph-name="positive" unicode="&#xe866;" d="M95 299a38 38 0 1 0 54 53l209-208 493 493a38 38 0 0 0 54-54l-520-520-1 0 0-1-1 0-1-1 0-1-1 0-1-1-1 0 0-1-1 0-1-1-1 0-1-1-1 0 0-1-1 0-1 0-1-1-1 0-1 0-1 0-1-1 0 0-1 0-1 0-1 0-1-1-1 0-1 0h-7l-1 0-1 0-1 1-1 0 0 0-1 0-1 0-1 1-1 0-1 0-1 0-1 1 0 0-1 0-1 1-1 0-1 1-1 0 0 1-1 0-1 1-1 0-1 1 0 0-1 1-1 1-1 0 0 1-236 236z" horiz-adv-x="1000" />

<glyph glyph-name="hamburger-menu" unicode="&#xe867;" d="M214 540h572c21 0 38 17 38 38s-17 37-38 37h-572c-21 2-38-15-38-36s17-39 38-39z m571-152h-570c-20 0-37-17-37-38s17-37 37-37h573c20 0 37 16 37 37s-19 38-40 38z m0-228h-570c-20 0-37-17-37-38s17-37 37-37h573c20 0 37 16 37 37a41 41 0 0 1-40 38z" horiz-adv-x="1000" />

<glyph glyph-name="search-thick" unicode="&#xe868;" d="M447 767a370 370 0 0 0 293-597l172-172a38 38 0 0 0-54-54l-171 171a370 370 0 1 0-240 652l0 0z m208-162a294 294 0 1 1 0-416c2 2 3 3 5 5l0 0 0 0a294 294 0 0 1-5 411z" horiz-adv-x="1000" />

<glyph glyph-name="back" unicode="&#xe869;" d="M533-55a38 38 0 0 0-62 41 38 38 0 0 0 8 12l311 314h-671a38 38 0 1 0 0 76h671l-311 314a38 38 0 0 0 12 62 38 38 0 0 0 42-9l373-376a38 38 0 0 0 0-58l-373-376v0z" horiz-adv-x="1000" />

<glyph glyph-name="option-bookmark-non" unicode="&#xe86a;" d="M499 765h183c33 0 65-12 89-34a118 118 0 0 0 37-87c0-206 6-420 0-626 0-11-1-21-4-32-4-15-12-28-23-37-12-10-25-14-41-14-7 0-14 1-21 2-43 13-134 146-180 216a675 675 0 0 0-22 33l-3 3a23 23 0 0 1-26 0c-2-1-3-1-3-3-6-7-13-18-22-33-48-70-138-203-181-216a107 107 0 0 0-21-2c-15 0-29 4-40 14a76 76 0 0 0-24 37 118 118 0 0 0-4 32c3 208 0 418 0 626 0 32 14 64 38 87a130 130 0 0 0 88 34h180z m183-47h-367c-20 0-40-8-55-22-14-13-22-32-22-52 0-208-3-418 0-626 0-7 0-12 2-18a29 29 0 0 1 9-14c2-3 7-3 9-3 3 0 6 0 9 2 26 8 111 132 155 196 11 16 20 29 24 34a66 66 0 0 0 14 14 71 71 0 0 0 83 0c6-4 10-8 14-14s13-18 24-34c43-64 127-189 154-196 3-2 5-2 8-2 4 0 7 2 10 3a29 29 0 0 1 8 14c2 6 3 13 3 18 3 208 0 418 0 626 0 20-8 38-22 52-18 14-39 22-60 22z m-207-103c0 13 10 24 24 25 12 0 23-9 25-23v-109h107c12 0 23-11 23-25 0-12-11-23-23-23h-107v-107c0-13-10-24-24-25a26 26 0 0 0-25 23v110h-107a26 26 0 0 0-25 24c0 12 10 23 24 25h108v105z" horiz-adv-x="1000" />

<glyph glyph-name="option-compare" unicode="&#xe86b;" d="M500 767c-12 0-24-11-24-24v-51a11 11 0 0 0-11-11h-236a64 64 0 0 1-64-64v-534c0-34 28-64 64-64h236a11 11 0 0 0 11-11v-51c0-13 12-24 24-24s24 11 24 24v786c0 14-10 24-24 24z m272-85h-190a26 26 0 0 1-22-25c0-13 11-24 23-24h191c8 0 15-7 15-15v-533a17 17 0 0 0-17-17h-190c-13 0-24-11-24-24s11-23 24-23h190a64 64 0 0 1 64 64v533c-1 35-29 64-64 64z" horiz-adv-x="1000" />

<glyph glyph-name="option-notify-non" unicode="&#xe86c;" d="M500 685h6c9 0 18-2 27-2 0 18-15 34-34 34-18 0-34-16-34-34 10 2 18 2 28 2h7z m-233 19a26 26 0 0 0 36-4 26 26 0 0 0-4-36 308 308 0 0 1-106-170l-4-25c-1-8-1-16-3-25 0-13-12-25-26-25-14 0-25 13-25 27v1c0 10 1 20 3 29 1 10 2 20 5 30 18 79 61 148 124 198z m434-34c-11 8-12 25-4 36s25 12 36 4c63-50 106-120 124-197 4-20 7-38 8-57 0-14-9-27-25-27a26 26 0 0 0-26 24c-1 16-3 33-7 48-15 66-51 125-106 168z m-86-653a121 121 0 0 0-154-77c-36 13-65 41-76 77a776 776 0 0 0-114 16c-71 17-113 45-113 77 0 22 9 44 24 59 21 27 51 66 51 249 0 114 74 217 182 253v11c0 47 38 86 84 86 47 0 86-37 86-83v-14a266 266 0 0 0 182-253c0-182 32-222 51-249 15-15 25-37 24-59 0-34-41-61-113-77-37-8-75-14-114-16z m-69-16c4 3 8 7 11 12-15 0-32-2-49-2h-15c-17 0-33 0-48 2 23-32 68-38 100-16-2 2 0 3 1 4z m107 570a207 207 0 0 1-149 62h-5a215 215 0 0 1-213-215c0-200-37-249-62-279-9-7-13-18-13-29 0-7 27-17 72-28 41-8 82-14 125-17h2c26-1 54-2 85-2h16a959 959 0 0 1 210 19c46 11 72 21 72 28 0 11-5 21-12 29-25 30-63 79-63 279-3 57-25 113-65 153z" horiz-adv-x="1000" />

<glyph glyph-name="option-share" unicode="&#xe86d;" d="M740 208c-41 0-79-19-104-48l-248 144c5 14 8 29 8 46 0 18-4 35-10 50l247 146c25-31 64-52 106-52 75 0 136 62 136 137 0 75-61 136-136 136a136 136 0 0 1-129-179l-249-148a137 137 0 0 1-101 46 136 136 0 0 1-136-136c0-75 61-136 136-136a137 137 0 0 1 105 50l248-145a122 122 0 0 1-9-45c0-75 61-137 136-137 75 0 136 62 136 137 0 75-61 134-136 134z m0 511a90 90 0 0 0 89-88 90 90 0 0 0-89-89 90 90 0 0 0-89 89 90 90 0 0 0 89 88z m-480-458a90 90 0 0 0-89 89 90 90 0 0 0 89 89 90 90 0 0 0 89-89 90 90 0 0 0-89-89z m480-278a90 90 0 0 0-89 89 90 90 0 0 0 89 89 90 90 0 0 0 89-89 90 90 0 0 0-89-89z" horiz-adv-x="1000" />

<glyph glyph-name="confirm-guarantee" unicode="&#xe86e;" d="M708 399a208 208 0 0 1-208 208 208 208 0 0 1-208-208 208 208 0 0 1 208-209 208 208 0 0 1 208 209z m-208-163a161 161 0 0 0-161 161 161 161 0 0 0 161 161 161 161 0 0 0 161-161c0-87-72-161-161-161z m240 2c4 6 10 11 17 15l15 5c20 9 28 31 20 49l-6 14c-5 14-3 30 8 40l10 10c16 15 16 39 0 53l-9 9c-12 11-14 27-9 42l6 14c8 19-2 42-20 49l-15 6c-14 6-22 20-22 35v17c0 21-17 37-38 37h-16c-16 0-30 10-35 24l-6 12c-8 20-30 28-48 20l-14-6c-14-5-31-2-40 9l-10 9c-15 16-39 16-53 0l-10-9c-11-11-26-14-41-9l-13 6c-19 8-42-1-48-20l-9-13c-5-14-19-23-34-23h-17c-21 0-38-16-38-37v-15c0-16-9-30-23-35l-16-6c-19-8-27-30-19-48l6-14c5-14 2-31-9-40l-9-10c-16-15-16-39 0-53l9-10c11-11 14-26 9-41l-5-16c-8-19 2-41 20-48l15-7c7-3 14-9 17-15l-64-131c-7-13-6-29 4-40a38 38 0 0 1 38-14l54 11 23-50c4-8 10-14 18-18 6-3 11-4 17-4 15 0 28 8 35 21l50 101c11 0 21-3 29-11l10-10c15-15 39-15 52 0l10 10c8 8 18 11 29 11l50-100c7-13 20-21 35-21 6 0 11 1 17 4 7 4 14 10 18 18l23 50 55-11a38 38 0 0 1 37 14c8 11 11 26 4 40l-64 130z m-408-146c-7 15-25 25-42 21l-43-10 35 69c7-5 14-8 22-8h16c15 0 29-10 34-24l6-15c4-8 9-15 18-19l-28-56-18 42z m194 62c-15-15-38-15-52 0a37 37 0 0 1-41 9c-19-9-41 1-48 19v1a38 38 0 0 1-35 24h-1c-21 0-38 17-38 37v3c0 16-8 29-22 35l-1 1c-20 9-28 31-20 49a39 39 0 0 1-8 42c-16 15-16 39 0 52a37 37 0 0 1 8 41c-8 19 1 41 20 48h1c14 6 24 20 24 35v1c0 21 16 38 37 38h3c15 0 29 8 35 22l1 2c8 19 30 27 49 19 13-6 30-3 41 8 16 16 39 16 53 0a37 37 0 0 1 40-8c20 8 42-1 49-19v-2c5-14 19-23 35-23h1c21 0 37-17 37-38v-3c0-15 9-29 23-34l1-2c20-8 28-30 20-48-6-14-3-31 8-42 15-15 15-39 0-53a37 37 0 0 1-8-40c8-20-2-42-20-49h-1a38 38 0 0 1-24-35v-1c0-21-17-37-37-37h-3c-15 0-29-9-35-23l-1-1c-9-19-31-28-49-19-15 5-30 2-42-9z m184-41c-17 4-35-6-42-21l-19-41-28 56c7 4 14 10 18 18l7 15c5 14 19 23 35 23h16c9 0 17 2 22 8l35-70-44 12z m-143 338c21-2 40-5 44-18v-1c4-14-10-28-25-42h-1c-7-7-16-14-16-16v-9c0-4 2-9 3-15 4-21 7-40-4-49-1-1-3-1-5-2-2 0-5-2-6-2a28 28 0 0 0-18 6c-6 3-13 7-20 10a65 65 0 0 1-13 6c-2 2-3 3-6 3a20 20 0 0 1-8-3c-4-1-9-4-13-6-5-3-12-7-18-10a69 69 0 0 0-18-6c-1 0-4 0-5 2a11 11 0 0 0-6 2c-7 5-8 13-8 23 0 9 1 18 4 27 1 10 4 21 3 24-2 3-9 10-17 17a129 129 0 0 0-20 19c-5 8-8 15-6 22 4 14 25 17 45 20a50 50 0 0 1 16 3 20 20 0 0 1 8 2c1 2 3 5 4 7 2 4 4 9 7 14 8 20 18 36 32 38h1c7 0 14-6 20-13 4-8 10-15 12-23 5-9 9-20 11-21 2-6 13-7 23-9z" horiz-adv-x="1000" />

<glyph glyph-name="fast-delivery" unicode="&#xe86f;" d="M725 429h-68v64a72 72 0 0 1-72 72h-349a71 71 0 0 1-71-71v-68c0-12 10-22 23-22 12 0 22 10 22 22v64c0 16 12 27 26 27h349c14 0 25-11 25-25v-300c0-14-11-25-25-25h-171a76 76 0 0 1-74 54c-34 0-65-22-75-54h-30a25 25 0 0 0-25 25v3c0 12-10 22-22 22-13 0-23-10-23-22v-3a72 72 0 0 1 72-72h30a76 76 0 0 1 73-55 76 76 0 0 1 74 55h257a76 76 0 0 1 73-55 76 76 0 0 1 74 55h11a72 72 0 0 1 72 72v59c2 99-79 178-176 178z m-365-310c-6-4-13-6-20-6-7 0-14 2-19 6a30 30 0 0 0-11 24 30 30 0 0 0 11 24c5 4 12 7 19 7 7 0 14-3 20-7a30 30 0 0 0 11-24c0-10-6-18-11-24z m405 0c-5-4-12-6-19-6-7 0-14 2-20 6a30 30 0 0 0-11 24 30 30 0 0 0 11 24c6 4 13 7 20 7 7 0 14-3 19-7a30 30 0 0 0 11-24c0-10-5-18-11-24z m66 48h-12a76 76 0 0 1-73 54 76 76 0 0 1-74-54c-8 2-15 9-15 19v177c0 11 8 19 19 19h48a130 130 0 0 0 130-131l2-59c0-14-12-25-25-25z m-480 159h-162a24 24 0 0 0-24 24c0 13 11 24 24 24h162c13 0 24-11 24-24a23 23 0 0 0-24-24z m-69-83h-163a24 24 0 0 0-23 24c0 12 11 23 23 23h163c12 0 24-11 24-23s-12-24-24-24z" horiz-adv-x="1000" />

<glyph glyph-name="service-delivery" unicode="&#xe870;" d="M725 429h-68v64a72 72 0 0 1-72 72h-136c-25 70-92 120-170 120-100 0-180-81-180-181 0-55 25-105 65-139v-173a72 72 0 0 1 72-73h29a76 76 0 0 1 74-54 76 76 0 0 1 74 54h256a76 76 0 0 1 74-54 76 76 0 0 1 74 54h11a72 72 0 0 1 72 73v59c3 99-78 178-175 178z m-562 9a133 133 0 0 0-18 66 133 133 0 0 0 133 134 133 133 0 0 0 132-120c0-4 1-10 1-14a133 133 0 0 0-133-133c-25 0-49 7-68 19a128 128 0 0 0-48 48z m197-319c-6-4-13-6-20-6s-14 2-19 6a30 30 0 0 0-11 24c0 10 4 18 11 24 5 4 12 7 19 7s14-3 20-7c7-6 11-14 11-24 0-10-6-18-11-24z m250 73c0-14-11-25-25-25h-171a76 76 0 0 1-74 54c-34 0-65-22-75-54h-30c-14 0-25 11-25 25v144c21-8 44-14 68-14 100 0 180 81 180 181 0 4 0 10-1 14h128c14 0 25-11 25-25v-300z m155-73c-5-4-12-6-19-6-7 0-14 2-20 6a30 30 0 0 0-11 24c0 10 5 18 11 24 6 4 13 7 20 7s14-3 19-7c7-6 11-14 11-24 0-10-5-18-11-24z m91 73c0-14-12-25-25-25h-12a76 76 0 0 1-73 54 76 76 0 0 1-74-54c-8 2-15 9-15 19v177a19 19 0 0 0 19 19h48a130 130 0 0 0 130-131l2-59z m-609 251l50 47c3 2 4 6 4 9v87c0 13-11 24-23 24-13 0-24-11-24-24v-72l-39-36c-9-9-9-24-1-33a24 24 0 0 1 33-2z" horiz-adv-x="1000" />

<glyph glyph-name="service-guarantee" unicode="&#xe871;" d="M824 378l-11 11c-12 11-16 29-9 43l6 14a40 40 0 0 1-22 53l-16 5c-15 6-25 21-25 38v16c0 23-18 41-40 41h-15c-17 0-31 9-38 25l-5 15a40 40 0 0 1-53 22l-14-5c-15-6-32-3-43 8l-11 10c-15 15-40 15-57 0l-11-11c-11-12-29-16-43-9l-14 6a40 40 0 0 1-53-22l-6-16c-5-15-20-25-37-25h-15c-23 0-41-18-41-40v-15c0-17-9-31-25-38l-15-5a40 40 0 0 1-22-53l6-14c5-15 2-32-9-43l-10-11c-15-15-15-40 0-57l12-11c11-11 15-29 8-43l-6-14a40 40 0 0 1 23-53l15-6c15-5 25-20 25-37v-15c0-23 18-41 40-41h15c17 0 31-9 38-25l5-15a40 40 0 0 1 53-22l14 5c15 6 32 3 43-8l11-11c16-15 41-15 57 0l11 11c11 11 29 15 43 8l14-5a40 40 0 0 1 53 22l6 15c5 16 20 25 37 25h15c23 0 41 18 41 41v16c0 17 9 31 25 38l15 5a40 40 0 0 1 22 53l-5 14c-6 15-3 32 8 43l11 11a41 41 0 0 1-1 56z m-75-100a40 40 0 0 0-23-53c-15-5-25-21-25-37 0-23-18-41-40-41-17 0-30-9-37-25a40 40 0 0 0-53-22c-15 6-32 3-43-8-15-16-40-16-57 0-11 11-29 15-43 8a40 40 0 0 0-53 22c-6 16-21 25-37 25a40 40 0 0 0-41 41c0 16-9 30-25 37a40 40 0 0 0-22 53c6 15 3 32-8 43-16 15-16 40 0 57 11 11 15 29 8 43a40 40 0 0 0 22 53c16 5 25 21 25 37 0 22 18 40 41 40 16 0 30 10 37 25a40 40 0 0 0 53 23c15-6 32-3 43 8 15 15 40 15 57 0 11-11 29-15 43-8a40 40 0 0 0 53-23c5-15 20-25 37-25 22 0 40-18 40-40 0-16 10-30 25-37a40 40 0 0 0 23-53c-6-15-3-32 8-43 15-15 15-40 0-57-11-11-15-28-8-43z m-249-135c-114 0-207 93-207 207 0 114 93 207 207 207 114 0 207-93 207-207 0-114-93-207-207-207z m0 367c-89 0-160-72-160-160 0-87 71-160 160-160a159 159 0 0 1 160 160 159 159 0 0 1-160 160z m-39-252c-10 0-19 5-26 12l-38 37c-9 10-9 24 0 33 10 10 24 10 34 0l25-23c2-3 8-3 12 0l103 102c10 10 23 10 33 0 10-9 10-23 0-33l-115-115c-8-8-18-13-28-13z" horiz-adv-x="1000" />

<glyph glyph-name="service-payment" unicode="&#xe872;" d="M854 663h-285c-50 0-97-17-136-48l-143-112h-116a74 74 0 0 1-74-74v-257a74 74 0 0 1 74-73h465a74 74 0 0 1 74 73v106a199 199 0 0 1 186 200v139c1 25-20 46-45 46z m-707-235c0 15 13 26 27 26h294l-72-65a43 43 0 0 1-13-15h-236v54z m518-257c0-15-11-27-25-27h-466c-16 0-27 13-27 27v155h222c2-18 9-33 21-45a76 76 0 0 1 53-23c18 0 36 7 50 20l51 48h121v-155z m-68 203l14 12c6 6 13 8 21 8h36v-20h-71z m254 102c0-79-59-145-137-152v73c33 7 65 27 86 53 8 11 6 28-7 35-11 7-24 3-30-6-13-15-31-26-50-33a104 104 0 0 0-28-4h-54c-20 0-38-7-53-21l-117-108c-11-10-29-10-39 2-12 14-3 32 3 38l176 160c10 8 10 23 2 33-9 10-24 10-34 1l-50-46h-152l96 77c30 23 68 37 106 37h270c7 0 12-5 12-12v-127z" horiz-adv-x="1000" />

<glyph glyph-name="service-returnbox" unicode="&#xe873;" d="M900 199c-10 80-74 145-153 157h-1v155c0 13-7 25-18 31l-270 150c-22 12-48 12-70 0l-273-150c-9-7-16-18-16-29v-302c0-26 14-50 37-64l250-139c11-5 24-9 35-9 11 0 23 2 35 9l250 139c23 13 37 38 37 64v97h2c52-9 95-51 105-105 15-84-49-157-131-157a122 122 0 0 0-45 8c-10 4-21 0-28-8-10-13-4-31 11-36a185 185 0 0 1 62-11c107 0 192 91 181 200z m-615 270l237 132 31-16-236-132-32 16z m7-56v-74l-31 18v74l31-18z m-95 120l213 118c7 5 16 5 25 0l40-22-239-132-39 22c-5 3-5 10 0 14z m202-464c0-5-7-9-11-6l-227 126c-8 4-12 12-12 22v268c0 6 7 10 12 7l56-30v-102c0-16 8-30 22-39l57-32c4-2 10-4 15-4 6 0 11 2 15 4 10 6 16 16 16 27v76l46-25c8-4 13-14 13-23v-269h-2z m11 332l-45 25 236 132 45-25c5-2 5-11 0-14l-213-118a24 24 0 0 0-23 0z m273-213l-226-127c-6-3-11 2-11 7v270c0 9 5 18 14 23l226 125c6 3 13-1 13-7v-123c-41-6-75-23-102-48v14c0 11-8 22-19 25-15 3-28-8-28-23v-74c0-3 1-6 3-8 5-9 14-16 25-16h65c11 0 22 9 25 20 3 15-8 28-23 28h-16c18 16 40 29 67 33v-99c1-7-4-15-13-20z" horiz-adv-x="1000" />

<glyph glyph-name="config-battery" unicode="&#xe874;" d="M679-18h-358a128 128 0 0 0-128 128v373c0 71 57 128 128 128h49a6 6 0 0 1 5 6v22c0 43 36 79 79 79h92c43 0 79-36 79-79v-22c0-3 3-6 6-6h48c71 0 128-57 128-128v-373a128 128 0 0 0-128-128z m-358 582a81 81 0 0 1-81-81v-373c0-45 36-81 81-81h360a81 81 0 0 1 80 81v373a81 81 0 0 1-80 81h-49c-29 0-53 24-53 53v22a31 31 0 0 1-32 32h-91a31 31 0 0 1-32-32v-22c0-29-24-53-53-53h-50z m332-475h-306a24 24 0 0 0-23 24c0 12 11 23 23 23h306c12 0 23-11 23-23 0-13-11-24-23-24z m0 103h-306a24 24 0 0 0-23 23c0 13 11 24 23 24h306c12 0 23-11 23-24 0-12-11-23-23-23z m0 102h-306a24 24 0 0 0-23 24c0 13 11 24 23 24h306c12 0 23-11 23-24a23 23 0 0 0-23-24z" horiz-adv-x="1000" />

<glyph glyph-name="config-camera" unicode="&#xe875;" d="M688-18h-375c-67 0-123 50-128 117l-31 358c-3 36 10 71 34 97 23 27 58 42 94 42l32-2c5 0 11 3 12 9a166 166 0 0 0 157 114h32c71 0 135-46 157-113 2-5 7-8 13-8h33c36 0 70-15 95-42 23-26 36-61 33-97l-31-357a129 129 0 0 0-127-118z m-406 568c-22 0-43-10-58-26-16-17-24-39-21-61l30-359c5-41 38-73 81-73h375c42 0 76 32 80 73l31 359a82 82 0 0 1-21 61 80 80 0 0 1-60 26h-33c-25 0-48 17-57 40a118 118 0 0 1-112 81h-32c-52 0-97-32-113-81-8-25-33-41-58-40h-32z m282-33h-128a24 24 0 0 0-23 23c0 13 11 24 23 24h128c12 0 24-11 24-24a23 23 0 0 0-24-23z m-64-404a168 168 0 0 0-168 168c0 93 75 169 168 169 93 0 168-75 168-168 0-93-75-169-168-169z m0 290c-67 0-121-54-121-121 0-67 54-121 121-121 67 0 121 54 121 121 0 67-54 121-121 121z" horiz-adv-x="1000" />

<glyph glyph-name="config-display" unicode="&#xe876;" d="M679-18h-358a128 128 0 0 0-128 128v480c0 71 57 128 128 128h358c71 0 128-57 128-128v-479c0-71-57-129-128-129z m-358 689a81 81 0 0 1-81-81v-479c0-44 36-80 81-80h358a81 81 0 0 1 81 80v479a81 81 0 0 1-81 81h-358z m336-107h-314a24 24 0 0 0-23 24c0 12 11 23 23 23h313c12 0 23-11 23-23 2-13-9-24-22-24z m-157-475c-42 0-75 33-75 75s33 75 75 75 75-33 75-75c0-40-33-75-75-75z m0 103c-15 0-28-13-28-28 0-15 13-28 28-28 15 0 28 13 28 28 0 15-13 28-28 28z" horiz-adv-x="1000" />

<glyph glyph-name="config-ram" unicode="&#xe877;" d="M707 421c4 4 8 5 14 5 22 0 44 9 61 25 17 17 25 38 25 62v79c0 71-57 128-128 128h-358a128 128 0 0 1-128-128v-481c0-71 57-128 128-128h358c71 0 128 57 128 128v39c0 42-22 78-60 97l-21 11c-15 9-26 25-26 42v108c1 5 4 10 7 13z m-129-390h-156a10 10 0 0 0-9 9v46c0 24 19 43 43 43h87c24 0 43-19 43-43v-46c2-5-3-9-8-9z m128 184l20-11c21-11 34-32 34-54v-39a81 81 0 0 0-81-80h-46v54c0 50-40 90-90 90h-87c-50 0-91-40-91-90v-54h-44a81 81 0 0 0-81 80v481c0 44 36 80 81 80h44v-121c0-12 11-23 24-23 12 0 24 11 24 23v121h63v-121c0-12 12-23 24-23 13 0 24 11 24 23v121h64v-121c0-12 11-23 23-23 13 0 24 11 24 23v121h46c44 0 80-36 80-80v-79c0-12-4-21-11-28-7-7-17-13-28-11-18 0-34-7-47-20-12-12-19-29-19-47v-108c-2-35 18-67 50-84z" horiz-adv-x="1000" />

<glyph glyph-name="config-storage" unicode="&#xe878;" d="M679-18h-358a128 128 0 0 0-128 128v480c0 71 57 128 128 128h358c71 0 128-57 128-128v-479c0-71-57-129-128-129z m-358 689a81 81 0 0 1-81-81v-479c0-44 36-80 81-80h358a81 81 0 0 1 81 80v479a81 81 0 0 1-81 81h-358z m325-204a146 146 0 1 1-146-146 143 143 0 0 1 99 39v-128a90 90 0 0 1-28 6c-42 0-75-34-75-75s33-75 75-75 75 34 75 75v304z m-146-99a99 99 0 0 0-98 99c0 54 44 98 98 98 54 0 99-44 99-98s-45-99-99-99z m71-233a28 28 0 0 0-28 28c0 15 13 27 28 27 15 0 28-12 28-27 0-16-13-28-28-28z" horiz-adv-x="1000" />

<glyph glyph-name="rate-star-25" unicode="&#xe879;" d="M298 491v-532h-78l14 292-103 99s-35 54-35 55a234 234 0 0 0 0 25c0 7 0 11 4 15s17 22 18 22a39 39 0 0 0 20 11c15 3 52 15 59 15z m605-157a113 113 0 0 1 42 117 113 113 0 0 1-101 72l-136 22a60 60 0 0 0-35 27l-73 147c-33 67-77 77-100 77s-67-10-100-77l-74-147a59 59 0 0 0-28-24v-65h0a121 121 0 0 1 84 61l73 147c13 26 30 42 45 42s31-16 44-42l74-147a121 121 0 0 1 83-61l132-21c29-5 48-16 52-30s-5-34-25-54l-103-103a121 121 0 0 1-30-105l30-128c9-42 2-63-6-70s-32-5-68 16l-125 74a119 119 0 0 1-114 0l-125-74a128 128 0 0 0-20-10v-66a205 205 0 0 1 51 21l125 74a60 60 0 0 0 51 0l125-74c74-43 117-26 136-12s49 50 30 134l-30 128a59 59 0 0 0 13 47z m-605-356c-24-11-41-11-48-6s-15 29-5 70l29 128a121 121 0 0 1-30 105l-103 103c-20 20-30 42-25 54s24 25 52 30l130 21v65l-6-3-133-22a113 113 0 0 1-103-72 113 113 0 0 1 42-117l102-104a59 59 0 0 0 13-47l-29-128c-19-83 10-120 30-134a83 83 0 0 1 50-15 135 135 0 0 1 34 5z" horiz-adv-x="1000" />

<glyph glyph-name="rate-star-75" unicode="&#xe87a;" d="M702 506a83 83 0 0 0-61 52l-42 134a83 83 0 0 1-156 0l-77-125c-11-34-233-115-292-125l70-125c51-10 143-104 131-138l-41-133c-58-93 62-139 125-92l114 83a83 83 0 0 0 96 0l114-83a77 77 0 0 1 20-11z m-605-172a113 113 0 0 0-42 117 113 113 0 0 0 103 72l134 22a60 60 0 0 1 36 27l72 147c33 67 77 77 100 77s67-10 100-77l74-147a59 59 0 0 1 28-24v-65h-2a121 121 0 0 0-84 61l-72 147c-13 27-29 42-44 42s-31-16-44-42l-74-147a121 121 0 0 0-83-60l-132-22c-29-5-48-16-52-30s5-34 25-54l103-103a121 121 0 0 0 30-105l-30-128c-9-42-2-63 6-70s32-5 68 16l125 74a119 119 0 0 0 114 0l125-74a128 128 0 0 1 20-10v-66a205 205 0 0 0-51 21l-125 74a60 60 0 0 1-51 0l-124-74c-74-43-117-26-136-12s-47 51-30 135l29 127a59 59 0 0 1-13 47z m605-356c24-11 41-11 48-6s15 29 5 70l-29 128a121 121 0 0 0 30 105l103 103c20 20 30 42 25 54s-24 25-52 30l-130 21v65l8-3 133-22a113 113 0 0 0 101-72 113 113 0 0 0-42-117l-102-104a59 59 0 0 1-13-47l29-128c19-83-10-120-30-134a83 83 0 0 0-50-15 135 135 0 0 0-34 5z" horiz-adv-x="1000" />

<glyph glyph-name="rate-star-0" unicode="&#xe87b;" d="M233-78c-20 14-49 50-30 134l30 127a60 60 0 0 1-14 47l-103 104a114 114 0 0 0-42 117 115 115 0 0 0 103 72l132 22a62 62 0 0 1 36 27l74 147c34 67 77 77 100 77s67-10 100-77l74-147a62 62 0 0 1 36-27l133-22a115 115 0 0 0 101-72 114 114 0 0 0-42-117l-103-104a60 60 0 0 1-12-47l29-128c20-83-10-120-30-134s-62-31-136 13l-125 74a59 59 0 0 1-50 0l-125-75a167 167 0 0 0-86-28 83 83 0 0 0-50 17z m343 140l125-74c37-21 59-22 68-16s15 29 6 70l-30 128a120 120 0 0 0 30 105l104 103c20 20 29 42 25 54s-24 25-52 30l-133 22a125 125 0 0 0-83 60l-73 147c-13 27-29 42-44 42s-31-16-44-42h0l-74-147a122 122 0 0 0-83-60l-133-22c-28-5-47-16-52-30s5-34 25-54l104-103a122 122 0 0 0 30-105l-30-128c-9-42-3-63 6-70s31-5 67 16l125 74a119 119 0 0 0 115 0z" horiz-adv-x="1000" />

<glyph glyph-name="rate-star-100" unicode="&#xe87c;" d="M497 746s237-773 238-792c0-37-30-32-73 0l-114 84a83 83 0 0 1-96 0l-114-84a83 83 0 0 0-125 92l42 134a83 83 0 0 1-30 92l-113 83a83 83 0 0 0 48 147h140a83 83 0 0 1 78 56l42 134c26 75 52 130 77 54z m81-54l42-133c11-34 266-106 302-106l-69-125c-29-21-120-114-109-148l41-134a83 83 0 0 0-125-92l-113 84a83 83 0 0 1-97 0l-113-84a83 83 0 0 0-125 92l42 134a83 83 0 0 1-30 92l-113 83a83 83 0 0 0 49 147h140a83 83 0 0 1 78 56l42 134a83 83 0 0 0 158 0z m366-242a113 113 0 0 1-101 72l-135 22a60 60 0 0 0-35 27l-6 10 5-12c12-30 20-56 31-87l130-22c29-4 48-15 52-29s-5-34-25-54l-89-90 21-69a92 92 0 0 0 11 14l100 101a113 113 0 0 1 41 117z m-208-545a167 167 0 0 0-86 28l-125 74a60 60 0 0 1-51 0l-124-74c-74-43-117-26-136-12s-47 50-30 134l29 128a59 59 0 0 1-13 46l-103 104a113 113 0 0 0-42 117 113 113 0 0 0 103 72l134 22a60 60 0 0 1 36 27l72 147c33 67 77 77 100 77s67-10 100-77l74-147a60 60 0 0 1 36-27l133-22a113 113 0 0 0 101-72 113 113 0 0 0-42-117l-102-104a59 59 0 0 1-13-46l29-128c19-83-10-120-30-134a86 86 0 0 0-50-16z m-236 170a114 114 0 0 0 57-14l125-74c36-22 59-22 68-16s15 29 6 70l-30 128a121 121 0 0 0 30 104l104 104c20 20 29 41 25 54s-24 25-52 29l-133 23a121 121 0 0 0-83 60l-73 147h0c-13 26-29 42-44 42s-31-16-44-42l-74-147a121 121 0 0 0-83-60l-132-23c-29-4-48-15-52-29s5-34 25-54l103-104a121 121 0 0 0 30-104l-30-128c-9-42-2-64 6-70s32-6 68 16l125 74a114 114 0 0 0 58 14z" horiz-adv-x="1000" />

<glyph glyph-name="rate-star-50" unicode="&#xe87d;" d="M500 746v-698a113 113 0 0 1-48-13l-113-83a83 83 0 0 0-125 92l41 134a83 83 0 0 1-29 92l-113 83a83 83 0 0 0 47 149h140a83 83 0 0 1 78 56l42 134c26 75 55 130 80 54z m403-413a113 113 0 0 1 42 117 113 113 0 0 1-101 72l-136 22a60 60 0 0 0-35 27l-73 147c-33 67-77 77-100 77v-63c15 0 31-16 44-42l74-147a121 121 0 0 1 83-60l132-23c29-4 48-15 52-29s-5-34-25-54l-103-104a121 121 0 0 1-30-104l30-128c9-42 2-64-6-70s-32-6-68 16l-125 74a114 114 0 0 1-58 14v-62a53 53 0 0 0 25-6l125-74a167 167 0 0 1 86-28 86 86 0 0 1 51 16c19 14 49 50 30 134l-30 128a59 59 0 0 0 13 47z m-403-258a114 114 0 0 1-57-14l-125-74c-36-22-59-22-68-16s-15 29-6 70l30 128a121 121 0 0 1-30 104l-103 104c-20 20-30 41-25 54s24 25 52 29l132 23a121 121 0 0 1 84 60l74 147c12 26 29 42 44 42v63c-23 0-67-10-100-77l-76-147a60 60 0 0 0-34-27l-133-22a113 113 0 0 1-103-72 113 113 0 0 1 42-117l102-104a59 59 0 0 0 13-46l-29-128c-19-83 10-120 30-134s62-31 136 13l125 74a53 53 0 0 0 25 5z" horiz-adv-x="1000" />

<glyph glyph-name="option-notify-non-1" unicode="&#xe87e;" d="M500 685h6c9 0 18-2 27-2 0 18-15 34-34 34-18 0-34-16-34-34 10 2 18 2 28 2h7z m-233 19a26 26 0 0 0 36-4 26 26 0 0 0-4-36 308 308 0 0 1-106-169l-4-25c-1-9-1-17-3-25 0-14-12-25-26-25-14 0-25 12-25 26v1c0 10 1 20 3 29 1 10 2 20 5 30a353 353 0 0 0 124 198z m434-34c-11 8-12 25-4 36 9 11 25 12 36 4a354 354 0 0 0 124-197c4-20 7-38 8-57 0-14-9-27-25-27a26 26 0 0 0-26 24c-1 17-3 33-7 48a302 302 0 0 1-106 169z m-86-653a121 121 0 0 0-154-77c-36 13-65 40-76 77-39 3-77 8-114 16-71 17-113 45-113 77 0 22 9 44 24 59 21 27 51 66 51 249 0 114 74 217 182 253v11c0 47 38 86 84 86 47 0 86-37 86-83v-14c108-36 182-138 182-253 0-182 32-222 51-248 15-16 25-38 24-60 0-34-41-61-113-77-37-8-75-13-114-16z m-69-16c4 3 8 7 11 12-15 0-32-2-49-2h-15c-17 0-33 0-49 2 24-33 69-38 100-16-1 2 0 3 2 4z m107 570a207 207 0 0 1-149 62h-5a215 215 0 0 1-213-215c0-200-37-248-62-279-9-7-13-18-13-29 0-7 27-17 72-28 41-8 82-14 125-17h2c26-1 54-2 84-2h17c71-2 142 5 210 19 46 11 72 21 72 28 0 11-5 21-12 29-25 30-63 79-63 279-3 57-25 113-65 153z" horiz-adv-x="1000" />

<glyph glyph-name="bold-minus-cirlce" unicode="&#xe87f;" d="M500 767c-230 0-417-187-417-417s187-417 417-417c230 0 417 187 417 417s-187 417-417 417z m163-448h-333c-17 0-31 14-31 31 0 17 14 31 31 31h333c17 0 32-14 32-31 0-17-14-31-32-31z m-163 448c-230 0-417-187-417-417s187-417 417-417c230 0 417 187 417 417s-187 417-417 417z m163-448h-333c-17 0-31 14-31 31 0 17 14 31 31 31h333c17 0 32-14 32-31 0-17-14-31-32-31z" horiz-adv-x="1000" />

<glyph glyph-name="basket-cart" unicode="&#xe880;" d="M747 394a63 63 0 0 1-48 24h-20l-26 90c-10 34-42 57-77 57h-152c-35 0-67-23-77-57l-26-90h-20c-19 0-37-8-48-24a61 61 0 0 1-13-52l46-202a95 95 0 0 1 93-75h243a95 95 0 0 1 93 75l46 202a67 67 0 0 1-14 52z m-353 100c5 13 17 23 30 23h152c14 0 27-10 30-23l22-76h-256l22 76z m319-143l-46-201c-4-21-24-36-46-36h-242c-22 0-40 15-46 36l-45 201c-2 6 1 10 2 13 2 1 6 6 11 6h396c6 0 10-3 11-6 3-1 6-6 5-13z m-188-61v-96c0-13-11-25-25-25-14 0-25 12-25 25v96c0 14 11 25 25 25 14 0 25-11 25-25z m97 0v-96c0-13-11-25-25-25-14 0-25 12-25 25v96c0 14 11 25 25 25 14 0 25-11 25-25z m-194 0v-96c0-13-11-25-25-25-14 0-25 12-25 25v96c0 14 11 25 25 25 14 0 25-12 25-25z" horiz-adv-x="1000" />

<glyph glyph-name="delivery-choice" unicode="&#xe881;" d="M725 429h-68v64a72 72 0 0 1-72 72h-349a71 71 0 0 1-71-71v-302a72 72 0 0 1 73-73h29a76 76 0 0 1 73-54 76 76 0 0 1 74 54h257a76 76 0 0 1 73-54 76 76 0 0 1 74 54h11a72 72 0 0 1 72 73v59c2 99-79 178-176 178z m-365-310c-6-4-13-6-20-6-7 0-14 2-19 6a30 30 0 0 0-11 24 30 30 0 0 0 11 24c5 4 12 7 19 7 7 0 14-3 20-7a30 30 0 0 0 11-24c0-10-6-18-11-24z m250 73c0-14-11-25-25-25h-171a76 76 0 0 1-74 54c-34 0-65-22-75-54h-30a25 25 0 0 0-25 25v298c0 16 12 27 26 27h349c14 0 25-11 25-25v-300z m155-73c-5-4-12-6-19-6-7 0-14 2-20 6a30 30 0 0 0-11 24 30 30 0 0 0 11 24c6 4 13 7 20 7 7 0 14-3 19-7a30 30 0 0 0 11-24c0-10-5-18-11-24z m66 48h-12a76 76 0 0 1-73 54 76 76 0 0 1-74-54c-8 2-15 9-15 19v177c0 11 8 19 19 19h48a130 130 0 0 0 130-131l2-59c0-14-12-25-25-25z m-316 237h-208a23 23 0 0 0-24 24 23 23 0 0 0 24 23h207c14 0 25-11 25-23s-11-24-24-24z m0-79h-208c-14 0-24 11-24 25 0 14 11 25 24 25h207c14 0 25-11 25-25 0-14-11-25-24-25z" horiz-adv-x="1000" />

<glyph glyph-name="wallet-cart" unicode="&#xe882;" d="M696 67h-392a84 84 0 0 0-83 83v333c0 46 37 84 83 84h382c14 0 25-11 25-24 0-14-11-24-25-24h-382a34 34 0 0 1-35-34v-334a34 34 0 0 1 35-34h393a34 34 0 0 1 35 34v241a34 34 0 0 1-35 34h-329a23 23 0 0 0-24 24c0 14 12 24 24 24h328c46 0 83-38 83-84v-243c0-43-36-80-83-80z m-7 207c0 14-11 25-25 25h-29c-14 0-25-11-25-25 0-14 11-24 25-24h29c15 0 25 11 25 24z" horiz-adv-x="1000" />

<glyph glyph-name="arrow-right-1" unicode="&#xe883;" d="M371-11c-8 0-15 3-22 9a31 31 0 0 0 0 44l272 272c20 20 20 52 0 72l-272 272a31 31 0 0 0 0 44c12 12 32 12 44 0l272-272c21-21 33-50 33-80s-11-59-33-80l-272-272c-6-6-14-9-22-9z" horiz-adv-x="1000" />

<glyph glyph-name="folder" unicode="&#xe884;" d="M708-98h-416c-184 0-240 56-240 240v416c0 184 56 240 240 240h62c73 0 96-24 125-63l63-83c13-18 16-21 41-21h125c184 0 240-56 240-239v-250c0-184-56-240-240-240z m-416 833c-149 0-177-28-177-177v-416c0-149 28-178 177-178h416c149 0 177 29 177 178v250c0 148-28 177-177 177h-125c-53 0-70 18-91 46l-63 83c-21 29-28 37-75 37h-62z" horiz-adv-x="1000" />

<glyph glyph-name="message-text-1" unicode="&#xe885;" d="M667-98h-542a73 73 0 0 0-73 73v542c0 184 97 281 281 281h334c184 0 281-97 281-281v-334c0-184-97-281-281-281z m-334 833c-149 0-218-69-218-218v-542a10 10 0 0 1 10-11h542c149 0 218 70 218 219v334c0 149-69 218-218 218h-334z m375-312h-416c-17 0-32 14-32 31 0 17 15 31 32 31h416c17 0 32-14 32-31 0-17-15-31-32-31z m-125-208h-291c-17 0-32 14-32 31 0 17 15 31 32 31h291c17 0 32-14 32-31 0-17-15-31-32-31z" horiz-adv-x="1000" />

<glyph glyph-name="user-square" unicode="&#xe886;" d="M625-98h-250c-55 0-101 6-140 17a32 32 0 0 0-22 33c10 124 137 222 287 222 150 0 276-97 287-222a31 31 0 0 0-22-33c-39-11-85-17-140-17z m-345 71c28-6 59-8 95-8h250c36 0 68 2 95 8-22 80-113 139-220 139-107 0-198-59-220-139z m345 794h-250c-208 0-292-84-292-292v-250c0-157 48-244 161-276 9 109 121 194 256 194 135 0 247-85 256-194 113 32 161 119 161 276v250c0 208-84 292-292 292z m-125-507a149 149 0 0 0-149 149 149 149 0 0 0 149 149 149 149 0 0 0 149-149 149 149 0 0 0-149-149z m0-32c-99 0-180 82-180 181a181 181 0 0 0 180 181 181 181 0 0 0 181-181c0-99-81-181-181-181z m0 299a118 118 0 0 1 0-236 118 118 0 0 1 118 118 118 118 0 0 1-118 118z" horiz-adv-x="1000" />

<glyph glyph-name="wallet-money" unicode="&#xe887;" d="M299-98c-99 0-181 72-181 161v85c0 17 15 31 32 31 17 0 31-14 31-31 0-52 50-91 118-91s118 39 118 91c0 17 14 31 31 31 17 0 31-14 31-31v-85c0-89-81-161-180-161z m-107 120c18-34 59-58 107-58 47 0 89 24 107 58-30-18-66-28-107-28-41 0-78 10-107 28z m107 86c-69 0-130 32-160 81a140 140 0 0 0-21 73c0 44 20 85 55 115 67 59 183 59 251 0 35-30 55-71 55-115 0-26-7-51-21-73-30-49-91-81-159-81z m0 252c-33 0-63-10-85-30-21-18-33-43-33-68 0-15 4-28 11-40 19-32 60-52 107-52 46 0 87 20 106 51 8 12 11 26 11 41 0 25-11 49-33 68-22 20-52 30-84 30z m0-366c-103 0-181 66-181 154v114c0 89 81 161 181 161 47 0 92-16 126-45 35-31 54-72 54-116v-114c0-88-77-154-180-154z m0 366c-65 0-118-44-118-98v-114c0-53 50-92 118-92s118 39 118 92v114c0 26-12 50-33 68-23 20-53 30-85 30z m494-127c-63 0-116 47-121 107a114 114 0 0 0 34 93c21 22 51 34 82 34h87c41-2 73-34 73-74v-86a74 74 0 0 0-72-74h-83z m81 171h-86a51 51 0 0 1-37-15 53 53 0 0 1-16-44c2-27 28-49 58-49h82c5 0 10 5 10 11v86c0 6-5 11-11 11z m-207-440h-104c-17 0-32 15-32 32 0 17 15 31 32 31h104c107 0 177 70 177 177v29h-51c-62 0-116 47-121 107a114 114 0 0 0 34 93c21 22 51 34 82 34h55v29c0 97-57 164-149 175-10 2-19 2-28 2h-375c-10 0-19-1-29-2-91-12-148-78-148-175v-83c0-18-14-32-31-32-17 0-31 14-31 32v83c0 128 79 221 202 237 11 1 24 2 37 2h375c10 0 23 0 37-2 123-14 203-108 203-237v-61c0-17-14-31-31-31h-87c-15 0-28-5-37-15-13-12-18-28-17-44 2-27 29-49 59-49h82c17 0 31-14 31-31v-61c0-143-96-239-239-239z" horiz-adv-x="1000" />

<glyph glyph-name="document-download" unicode="&#xe888;" d="M375 110c-4 0-8 1-12 3a31 31 0 0 0-19 29v250c0 17 14 31 31 31 17 0 31-14 31-31v-175l30 30a31 31 0 0 0 44 0 31 31 0 0 0 0-44l-83-83a32 32 0 0 0-22-10z m0 0a31 31 0 0 0-22 10l-83 83a31 31 0 0 0 0 44 31 31 0 0 0 44 0l83-83a31 31 0 0 0 0-44 31 31 0 0 0-22-10z m250-208h-250c-226 0-323 97-323 323v250c0 226 97 323 323 323h208c17 0 32-14 32-31 0-17-15-32-32-32h-208c-192 0-260-68-260-260v-250c0-192 68-260 260-260h250c192 0 260 68 260 260v208c0 17 15 32 32 32 17 0 31-15 31-32v-208c0-226-97-323-323-323z m292 500h-167c-142 0-198 56-198 198v167c0 12 8 24 19 29 12 5 25 2 34-7l334-333a31 31 0 0 0-22-54z m-302 289v-91c0-107 28-135 135-135h91l-226 226z" horiz-adv-x="1000" />

<glyph glyph-name="note" unicode="&#xe889;" d="M663 9c-11 0-22 1-35 2-21 2-46 6-72 12l-70 17c-193 45-257 147-211 338l41 175c9 40 20 72 33 98 72 148 210 135 308 112l70-16c99-23 161-59 195-115 35-55 40-126 17-224l-41-174c-36-153-111-225-235-225z m-113 706c-70 0-114-29-144-91-11-22-21-50-29-85l-41-175c-38-157 6-226 164-263l71-17c22-6 44-9 63-11 114-11 171 39 202 175l42 174c18 81 16 137-9 177-25 41-75 68-156 87l-70 16c-35 9-66 13-93 13z m-201-792c-107 0-176 64-220 199l-54 165c-59 183-6 287 177 346l67 21c21 7 38 11 52 14a31 31 0 0 0 32-12 32 32 0 0 0 3-33c-11-22-21-50-29-85l-41-174c-37-158 6-227 165-264l70-17c23-5 44-8 63-10 14-1 25-11 28-23a31 31 0 0 0-12-34c-28-19-63-35-107-49l-66-22c-48-15-90-22-128-22z m-23 668l-54-18c-150-48-185-118-137-267l54-164c48-149 119-185 268-137l67 22c2 0 4 1 7 2l-45 11c-193 45-256 147-211 338l41 175c3 13 6 26 10 38z" horiz-adv-x="1006" />

<glyph glyph-name="bold-close-circle" unicode="&#xe88a;" d="M500 767c-230 0-417-187-417-417s187-417 417-417 417 187 417 417-187 417-417 417z m140-513c12-12 12-32 0-44-6-6-14-9-22-9s-16 3-22 9l-96 96-96-96c-6-6-14-9-22-9s-16 3-22 9a31 31 0 0 0 0 44l96 96-96 96a31 31 0 0 0 0 44c12 12 32 12 44 0l96-96 96 96c12 12 32 12 44 0 12-12 12-32 0-44l-96-96 96-96z" horiz-adv-x="1000" />

<glyph glyph-name="bold-tick-square" unicode="&#xe88b;" d="M675 767h-350c-151 0-242-91-242-242v-349c0-152 91-243 242-243h349c152 0 242 91 242 242v350c1 151-90 242-241 242z m24-321l-236-236a31 31 0 0 0-44 0l-118 118a31 31 0 0 0 0 44c12 12 32 12 44 0l96-96 214 214c12 12 32 12 44 0 12-12 12-32 0-44z" horiz-adv-x="1000" />

<glyph glyph-name="message-add" unicode="&#xe88c;" d="M667-98h-542a73 73 0 0 0-73 73v542c0 184 97 281 281 281h334c184 0 281-97 281-281v-334c0-184-97-281-281-281z m-334 833c-149 0-218-69-218-218v-542a10 10 0 0 1 10-11h542c149 0 218 70 218 219v334c0 149-69 218-218 218h-334z m313-416h-292c-17 0-31 14-31 31 0 17 14 31 31 31h292c17 0 31-14 31-31 0-17-14-31-31-31z m-146-146c-17 0-31 14-31 31v292c0 17 14 31 31 31 17 0 31-14 31-31v-292c0-17-14-31-31-31z" horiz-adv-x="1000" />

<glyph glyph-name="information-1" unicode="&#xe88d;" d="M501-98c-27 0-53 9-73 27l-66 56c-6 6-23 12-32 12h-73a112 112 0 0 0-111 111v72c0 8-6 25-12 31l-56 67c-35 40-35 104 0 145l56 66c6 6 12 23 12 32v71c0 61 50 111 111 111h72c9 0 25 7 32 12l66 57c41 34 105 34 146 0l65-57c7-5 24-11 33-11h71c61 0 111-50 111-112v-71c0-8 7-25 13-32l56-66c35-41 34-105 0-145l-56-66c-6-7-12-23-12-32v-71c0-61-50-112-112-112h-71c-8 0-25-6-32-12l-66-56c-20-18-47-27-72-27z m-244 739a49 49 0 0 1-49-49v-71c0-24-11-54-26-72l-57-67c-14-17-14-47 0-64l56-66c15-17 27-48 27-72v-71a49 49 0 0 1 49-49h72c24 0 54-12 73-27l66-57c17-14 47-14 64 0l66 57c19 15 49 26 73 26h70a49 49 0 0 1 50 49v71c0 24 11 54 26 73l57 66c14 17 14 47 0 64l-56 66c-16 19-27 49-27 72v72a49 49 0 0 1-49 49h-71c-24 0-55 11-73 27l-66 56c-17 15-47 15-64 0l-66-56c-19-16-49-27-73-27h-72z m243-494a42 42 0 0 0-42 42 42 42 0 0 0 42 41 42 42 0 0 0 42-41 42 42 0 0 0-42-42z m0 131c-17 0-31 15-31 32v201c0 17 14 32 31 32s31-15 31-32v-201c0-17-13-32-31-32z" horiz-adv-x="1000" />

<glyph glyph-name="timer" unicode="&#xe88e;" d="M635-98h-270c-79 0-136 33-158 90-23 59-2 132 53 182l193 176-193 176c-55 50-76 123-53 182 22 57 79 90 158 90h270c79 0 136-33 158-90 23-59 2-132-53-182l-193-176 194-176c54-50 76-123 53-182-23-57-80-90-159-90z m-135 406l-198-180c-35-32-50-79-37-113 13-33 48-50 100-50h270c52 0 88 17 100 50 13 34-2 81-37 113l-198 180z m-135 427c-52 0-87-17-100-50-13-34 2-81 37-113l198-180 198 180c35 32 50 79 37 113-12 33-48 50-100 50h-270z" horiz-adv-x="1000" />

</font>
</defs>
</svg>
